<svg width="167" height="167" viewBox="0 0 167 167" fill="none" xmlns="http://www.w3.org/2000/svg">
<path d="M50.4316 44.0677C50.4316 44.0677 68.3387 57.6567 95.562 32.2477C119.739 9.68259 139.48 45.2853 139.618 62.3348C139.797 84.4206 115.441 102.093 127.261 116.599C139.081 131.105 103.82 155.06 84.8167 134.329C61.1769 108.54 54.7726 129.493 41.298 129.493C31.6271 129.493 11.7719 105.464 25.1799 87.5864C36.4626 72.5429 30.3093 67.5502 27.3294 62.3348C23.0309 54.8131 33.239 34.3969 50.4316 44.0677Z" fill="#32B7BB"/>
<path d="M122.323 74.0973C123.285 74.455 124.337 74.4788 125.338 74.249C129.531 73.2866 143.948 70.7384 141.443 81.9105C140.897 84.1271 132.453 96.5406 144.478 101.072C145.359 101.408 146.291 101.592 147.234 101.615C150.937 101.691 158.274 100.817 161.344 97.6912C165.054 93.9152 161.001 95.7059 161.001 95.7059C161.001 95.7059 146.899 101.86 141.918 95.3309C141.363 94.6044 141.011 93.5493 140.909 92.641C140.734 91.0662 141.433 88.9851 142.352 87.1735C143.595 84.7216 149.564 73.692 136.605 70.4789C133.62 69.768 129.284 69.1294 123.693 71.4833C120.432 72.8562 121.154 73.6632 122.323 74.0973Z" fill="#BDD6F9"/>
<path d="M125.208 69.9798L121.455 71.3846C120.159 71.8695 119.502 73.313 119.987 74.6087L120.173 75.1058C120.658 76.4015 122.101 77.0588 123.397 76.5738L127.151 75.1691C128.446 74.6841 129.104 73.2407 128.619 71.945L128.433 71.4478C127.948 70.1521 126.504 69.4949 125.208 69.9798Z" fill="#4F536E"/>
<path d="M102.169 74.0446L89.7897 78.6776C89.1419 78.92 88.8133 79.6418 89.0557 80.2896L89.1045 80.4199C89.3469 81.0677 90.0687 81.3964 90.7165 81.1539L103.095 76.521C103.743 76.2785 104.072 75.5568 103.829 74.9089L103.781 74.7787C103.538 74.1308 102.816 73.8022 102.169 74.0446Z" fill="white"/>
<path d="M105.623 83.2755L93.2446 87.9084C92.5967 88.1509 92.2681 88.8727 92.5106 89.5205L92.5593 89.6508C92.8018 90.2987 93.5235 90.6273 94.1714 90.3848L106.55 85.7519C107.198 85.5094 107.527 84.7877 107.284 84.1398L107.235 84.0095C106.993 83.3617 106.271 83.033 105.623 83.2755Z" fill="white"/>
<path d="M117.052 67.7451L107.019 71.5C105.724 71.9849 105.066 73.4284 105.551 74.7241L108.977 83.8764C109.462 85.1721 110.905 85.8293 112.201 85.3444L122.234 81.5895C123.529 81.1046 124.187 79.6611 123.702 78.3654L120.276 69.2131C119.791 67.9174 118.348 67.2602 117.052 67.7451Z" fill="#8D95C6"/>
<path d="M108.056 70.1462L98.0231 73.9011C96.7274 74.386 96.0701 75.8295 96.555 77.1252L100.642 88.0442C101.127 89.3399 102.57 89.9972 103.866 89.5122L113.899 85.7573C115.194 85.2724 115.851 83.8289 115.367 82.5332L111.28 71.6142C110.795 70.3185 109.352 69.6612 108.056 70.1462Z" fill="#8D95C6"/>
<path d="M109.626 67.9302L109.548 67.9597C108.684 68.283 108.246 69.2453 108.569 70.1091L114.294 85.4055C114.617 86.2693 115.579 86.7074 116.443 86.3841L116.522 86.3547C117.386 86.0314 117.824 85.0691 117.501 84.2053L111.776 68.9089C111.452 68.0451 110.49 67.6069 109.626 67.9302Z" fill="#4F536E"/>
<path d="M7.32506 77.7101C7.32506 77.7101 27.4743 72.0476 24.5489 85.0934C24.0409 87.1576 16.7281 97.7863 25.4388 102.889C27.3092 103.985 29.4677 104.471 31.6353 104.459C35.5216 104.439 41.6826 103.691 44.4504 100.874C48.1598 97.0977 44.1074 98.8884 44.1074 98.8884C44.1074 98.8884 32.5354 103.648 26.582 99.8541C24.5492 98.5585 23.6278 96.05 24.1798 93.7034C24.4619 92.5378 24.8916 91.4129 25.4583 90.356C26.7531 87.931 32.6704 76.8745 19.7112 73.6614C16.7259 72.9505 12.39 72.3119 6.79927 74.6658C1.20852 77.0196 7.32506 77.7101 7.32506 77.7101Z" fill="#BDD6F9"/>
<path d="M47.1599 95.9692L43.4064 97.374C42.1107 97.8589 41.4534 99.3024 41.9383 100.598L42.1244 101.095C42.6093 102.391 44.0528 103.048 45.3485 102.563L49.102 101.158C50.3977 100.674 51.055 99.23 50.57 97.9343L50.384 97.4372C49.899 96.1415 48.4555 95.4842 47.1599 95.9692Z" fill="#4F536E"/>
<path d="M53.5014 89.7936L47.9386 91.8756C46.6429 92.3605 45.9856 93.804 46.4706 95.0997L49.153 102.267C49.6379 103.562 51.0814 104.22 52.3771 103.735L57.9399 101.653C59.2356 101.168 59.8929 99.7244 59.4079 98.4287L56.7256 91.2616C56.2406 89.9659 54.7971 89.3086 53.5014 89.7936Z" fill="#4F536E"/>
<path d="M62.7625 84.2756L54.4667 87.3804C53.171 87.8653 52.5137 89.3088 52.9987 90.6045L57.0852 101.524C57.5702 102.819 59.0136 103.476 60.3093 102.992L68.6051 99.8867C69.9008 99.4018 70.5581 97.9583 70.0731 96.6626L65.9866 85.7436C65.5016 84.4479 64.0582 83.7906 62.7625 84.2756Z" fill="#8D95C6"/>
<path d="M64.5194 82.0143L64.4408 82.0437C63.577 82.367 63.1388 83.3293 63.4621 84.1931L69.1869 99.4895C69.5102 100.353 70.4726 100.791 71.3364 100.468L71.415 100.439C72.2788 100.115 72.717 99.1531 72.3937 98.2893L66.6688 82.993C66.3456 82.1292 65.3832 81.691 64.5194 82.0143Z" fill="#4F536E"/>
<path d="M85.7033 72.2693C85.4045 72.2361 85.1303 72.0883 84.9383 71.8571C84.7463 71.6258 84.6515 71.329 84.6739 71.0293L85.2929 59.7234C85.3298 59.048 85.9001 58.5349 86.5473 58.5946L87.4491 58.6781C88.0963 58.7378 88.5596 59.3461 88.4691 60.0167L86.9481 71.2391C86.9131 71.5381 86.7642 71.812 86.5323 72.0039C86.3004 72.1958 86.0035 72.2908 85.7033 72.2693Z" fill="#4F536E"/>
<path d="M80.3585 73.2441C80.2655 73.2714 80.1681 73.2801 80.0719 73.2698C79.9756 73.2595 79.8822 73.2303 79.7972 73.1839C79.7122 73.1375 79.6372 73.0748 79.5764 72.9993C79.5156 72.9239 79.4703 72.8373 79.443 72.7444L77.2326 65.7115C77.1683 65.5115 77.186 65.2941 77.2818 65.1072C77.3776 64.9202 77.5436 64.7788 77.7435 64.7141L78.3158 64.5414C78.414 64.5128 78.5171 64.5048 78.6185 64.518C78.7199 64.5311 78.8175 64.5652 78.9051 64.618C78.9927 64.6708 79.0684 64.7412 79.1275 64.8248C79.1865 64.9083 79.2276 65.0032 79.2481 65.1034L80.8863 72.309C80.932 72.5027 80.903 72.7065 80.8052 72.8798C80.7074 73.053 80.5479 73.1831 80.3585 73.2441Z" fill="#4F536E"/>
<path d="M77.3758 77.2998C76.9798 77.7905 76.1833 77.7847 75.5701 77.2865L64.6842 68.442C64.034 67.9137 63.8421 67.0392 64.2623 66.519L64.8479 65.7936C65.2681 65.2731 66.131 65.3158 66.7463 65.8874L77.0466 75.4574C77.6267 75.9963 77.7718 76.809 77.3758 77.2998Z" fill="#4F536E"/>
<path d="M82.4077 100.144C82.6881 100.252 82.9155 100.465 83.0421 100.738C83.1687 101.011 83.1845 101.322 83.0863 101.606L79.6005 112.378C79.3922 113.022 78.7099 113.372 78.0993 113.149L77.2484 112.838C76.6379 112.615 76.3449 111.909 76.604 111.284L80.9407 100.822C81.0508 100.542 81.2648 100.315 81.5381 100.189C81.8114 100.062 82.123 100.046 82.4077 100.144Z" fill="#4F536E"/>
<path d="M87.8241 100.567C87.9209 100.564 88.0173 100.58 88.1078 100.615C88.1982 100.649 88.281 100.702 88.3513 100.768C88.4217 100.835 88.4782 100.914 88.5177 101.003C88.5573 101.091 88.579 101.187 88.5816 101.283L88.9226 108.648C88.9336 108.858 88.861 109.063 88.7207 109.219C88.5804 109.376 88.3837 109.47 88.174 109.482L87.5764 109.502C87.4742 109.505 87.3725 109.486 87.2778 109.448C87.1831 109.409 87.0974 109.351 87.0262 109.278C86.955 109.204 86.8997 109.117 86.864 109.021C86.8283 108.925 86.8128 108.823 86.8186 108.721L87.0752 101.336C87.0805 101.137 87.1605 100.947 87.2993 100.805C87.438 100.662 87.6254 100.577 87.8241 100.567Z" fill="#4F536E"/>
<path d="M91.7436 97.4072C92.2519 97.0338 93.0205 97.2429 93.4861 97.8811L101.752 109.212C102.246 109.889 102.208 110.783 101.669 111.179L100.917 111.731C100.378 112.127 99.5546 111.865 99.1057 111.155L91.5907 99.2721C91.1682 98.6032 91.2353 97.7804 91.7436 97.4072Z" fill="#4F536E"/>
</svg>
