<svg width="110" height="110" viewBox="0 0 110 110" fill="none" xmlns="http://www.w3.org/2000/svg">
<path d="M12.7281 37.953C16.2948 32.1543 18.0133 30.9438 19.1119 30.5371C21.9205 29.5655 23.7666 30.3196 24.8256 31.1214C28.6288 34.0014 28.6963 41.7559 28.2607 48.9615C28.2439 49.2396 28.2288 49.489 28.2171 49.7054C27.8426 56.8157 26.8213 63.9559 25.8337 70.8611C25.3108 74.5166 24.7702 78.2962 24.3365 82.0032C24.2777 82.4299 24.1988 82.9036 24.1104 83.4327C23.7948 85.323 23.275 88.4457 23.6266 90.5677C24.5021 91.3368 25.4061 92.0743 26.3371 92.7781C28.0915 92.5026 29.4631 90.7123 30.7229 88.8735C31.3631 87.9618 32.0324 87.0554 32.6796 86.1787C33.6774 84.8275 34.7092 83.4297 35.5919 82.0732C38.778 77.3567 41.5519 73.1274 44.2346 69.0378C46.9434 64.9082 49.7444 60.6383 52.9554 55.8875C53.833 54.618 55.3739 54.1687 56.7097 54.7836C57.9978 55.3762 58.6348 56.7774 58.2589 58.1918C58.0967 58.8262 57.9359 59.4384 57.7826 60.0228C56.5974 64.5357 55.882 67.2595 56.7719 72.3106C57.2401 74.9618 58.5888 76.9383 60.5694 77.8752C62.6166 78.8441 65.1854 78.6195 67.6171 77.257C72.1533 74.7695 75.2012 70.1956 77.3511 66.4882C78.589 64.325 78.797 63.764 79.2997 62.4091C79.4504 62.0023 79.6275 61.5245 79.8623 60.9213C76.9497 57.1421 75.7689 52.1693 75.2928 48.5646C74.3377 41.7729 74.779 33.9229 76.5703 25.8748C76.9847 24.0624 78.5474 18.3343 82.0918 16.1783C74.3988 10.8021 65.0356 7.64545 54.9329 7.64545C32.0353 7.64545 12.9294 23.8489 8.48462 45.3985C9.83491 42.9042 11.297 40.2795 12.7281 37.953Z" fill="#00A5AA"/>
<path d="M91.5858 25.1428C91.5869 25.1556 91.5879 25.1684 91.5888 25.1812C91.8198 28.7539 91.8198 32.377 91.5888 35.95C91.1282 43.0732 89.725 50.4349 87.5313 57.2386C87.331 57.9099 87.0872 58.5507 86.8513 59.1704C86.8059 59.2897 86.7612 59.4071 86.7175 59.5233C86.8247 59.5873 86.9329 59.6407 87.0456 59.6859C87.12 59.7156 87.1916 59.7517 87.26 59.7935C88.2309 60.3865 91.1046 60.3383 94.5198 59.0797C97.7265 57.8978 100.434 56.0749 102.343 53.8897C102.09 42.9028 98.0898 32.8407 91.5682 24.9281C91.5742 24.9995 91.5794 25.0731 91.5858 25.1428Z" fill="#00A5AA"/>
<path d="M85.1086 21.598C85.0858 21.5822 85.0325 21.5695 84.9488 21.5695C84.8465 21.5695 84.6986 21.5883 84.506 21.6421C84.169 21.7343 83.634 22.3404 83.2086 23.7526C83.2009 23.7785 83.1924 23.8041 83.1832 23.8293C82.3538 26.1065 81.9116 28.6482 81.4839 31.1064L81.4266 31.4356C80.4585 37.6083 80.3816 43.395 81.2024 48.61C81.4833 50.4394 81.9263 52.1575 82.5111 53.7051C85.3959 44.0621 86.4863 33.9859 85.6601 24.4893L85.6365 24.1186C85.5998 23.5061 85.5024 21.8784 85.1086 21.598Z" fill="#00A5AA"/>
<path d="M18.2528 83.8145C18.3536 83.0224 18.4491 82.2744 18.5115 81.5862C18.8832 78.2525 19.2049 75.932 19.5774 73.2455C19.7814 71.7731 19.9985 70.2086 20.2425 68.3367C20.2445 68.3213 20.2468 68.3058 20.2492 68.2908C21.1457 62.8153 21.831 57.2356 22.286 51.7052L22.2982 51.3876C22.4067 48.5521 22.5091 45.873 22.51 43.1786C22.4814 42.6062 22.4744 41.944 22.4673 41.2438C22.4501 39.5916 22.4273 37.3788 22.0446 36.1104C21.4074 36.5769 19.9057 38.0478 16.9734 42.6702C14.5562 46.4807 12.107 50.9147 10.3186 54.1521C9.11103 56.3386 8.45646 57.5175 8.10131 58.0318C7.94661 58.2707 7.80472 58.5157 7.65674 58.7577C8.4315 68.6131 12.2289 77.6192 18.1228 84.8556C18.1657 84.5024 18.2096 84.1535 18.2528 83.8145Z" fill="#00A5AA"/>
<path d="M85.9713 65.7438C85.9589 65.7385 85.9465 65.7333 85.9342 65.728C85.3759 65.4808 84.8889 65.2351 84.4457 64.9743C83.3092 67.2094 81.4432 70.533 80.1913 72.321C77.0958 76.7342 69.8062 84.0647 62.1392 83.5353C56.4911 83.1666 52.3069 79.5014 51.2243 73.9706C51.1077 73.387 50.998 72.8722 50.8995 72.4094C50.7137 71.5376 50.5624 70.8264 50.4648 70.1439C49.1834 72.0546 48.0955 73.6793 47.0145 75.2939C45.1206 78.1227 43.2477 80.9202 40.3928 85.1649C40.0859 85.6164 39.7371 86.1481 39.3515 86.7358C37.3864 89.7307 34.6396 93.9163 31.8086 96.3496C38.65 100.172 46.5355 102.355 54.933 102.355C78.288 102.355 97.6981 85.4972 101.63 63.3049C97.3362 66.4106 90.6262 67.6469 85.9713 65.7438Z" fill="#00A5AA"/>
</svg>
