<svg width="100" height="100" viewBox="0 0 100 100" fill="none" xmlns="http://www.w3.org/2000/svg">
<path d="M50 56.9998V54.9998H30.07L48 22.7199V42.9998C48 43.5298 48.21 44.0399 48.59 44.4099C48.97 44.7799 49.48 44.9998 50 44.9998H69.93L52 77.2799V56.9998C52 56.4698 51.79 55.9599 51.41 55.5899C51.04 55.2199 50.52 54.9998 50 54.9998V56.9998H48V84.9998C48 85.9098 48.62 86.7099 49.5 86.9399C50.38 87.1699 51.31 86.7699 51.75 85.9799L75.08 43.9799C75.42 43.3599 75.41 42.5998 75.06 41.9898C74.7 41.3798 74.04 40.9998 73.34 40.9998H52.01V14.9998C52.01 14.0898 51.39 13.2899 50.51 13.0599C49.63 12.8299 48.7 13.2298 48.26 14.0198L24.93 56.0198C24.59 56.6398 24.6 57.3998 24.95 58.0098C25.3 58.6198 25.97 58.9998 26.67 58.9998H50V56.9998H48H50Z" fill="black"/>
</svg>
