<svg width="100" height="100" viewBox="0 0 100 100" fill="none" xmlns="http://www.w3.org/2000/svg">
<path d="M80.6199 79.22V77.22H21.8398L30.9999 33.38H68.9898L78.6598 79.63L80.6199 79.22V77.22V79.22L82.5799 78.8101L72.5799 30.97C72.3899 30.04 71.5699 29.38 70.6199 29.38H29.3799C28.4299 29.38 27.6198 30.04 27.4198 30.97L17.4198 78.8101C17.2998 79.4001 17.4499 80.01 17.8299 80.48C18.2099 80.95 18.7799 81.22 19.3799 81.22H80.6199C81.2199 81.22 81.7898 80.95 82.1698 80.48C82.5498 80.01 82.6999 79.4001 82.5799 78.8101L80.6199 79.22Z" fill="black"/>
<path d="M40.9299 31.3201L36.9299 78.9601L40.9099 79.29L44.9099 31.65" fill="black"/>
<path d="M55.0999 31.65L59.0999 79.29L63.0799 78.9601L59.0799 31.3201" fill="black"/>
<path d="M77.4899 61.73H22.1499V65.73H77.4899" fill="black"/>
<path d="M73.4698 43.77H26.3699V47.77H73.4698" fill="black"/>
<path d="M57.6099 88.02V86.02H44.3999V81.22H55.6099V88.02H57.6099V86.02V88.02H59.6099V79.22C59.6099 78.69 59.4 78.1801 59.02 77.8101C58.65 77.4401 58.1299 77.22 57.6099 77.22H42.3999C41.8699 77.22 41.3599 77.4301 40.9899 77.8101C40.6199 78.1801 40.3999 78.7 40.3999 79.22V88.02C40.3999 88.55 40.6099 89.0601 40.9899 89.4301C41.3599 89.8001 41.8799 90.02 42.3999 90.02H57.6099C58.1399 90.02 58.65 89.8101 59.02 89.4301C59.39 89.0601 59.6099 88.54 59.6099 88.02H57.6099Z" fill="black"/>
<path d="M64.08 86.02H35.9299C34.8299 86.02 33.9299 86.92 33.9299 88.02C33.9299 89.12 34.8299 90.02 35.9299 90.02H64.08C65.18 90.02 66.08 89.12 66.08 88.02C66.08 86.92 65.18 86.02 64.08 86.02Z" fill="black"/>
<path d="M86.6199 15.79H85.6199C85.6199 16.87 85.1799 17.8401 84.4699 18.5601C83.7599 19.2701 82.79 19.7101 81.7 19.7101C80.62 19.7101 79.6499 19.2701 78.9299 18.5601C78.2199 17.8501 77.7799 16.88 77.7799 15.79C77.7799 14.71 78.2199 13.74 78.9299 13.02C79.6399 12.31 80.61 11.8701 81.7 11.8701C82.78 11.8701 83.7499 12.31 84.4699 13.02C85.1799 13.73 85.6199 14.7 85.6199 15.79H86.6199H87.6199C87.6199 12.53 84.97 9.88 81.71 9.88C78.44 9.88 75.7999 12.53 75.7999 15.79C75.7999 19.06 78.45 21.7001 81.71 21.7001C84.98 21.7001 87.6199 19.05 87.6199 15.79H86.6199Z" fill="black"/>
<path d="M80.71 4.75V7.55005C80.71 8.10005 81.16 8.55005 81.71 8.55005C82.26 8.55005 82.71 8.10005 82.71 7.55005V4.75C82.71 4.2 82.26 3.75 81.71 3.75C81.16 3.75 80.71 4.2 80.71 4.75Z" fill="black"/>
<path d="M80.71 24.03V26.8301C80.71 27.3801 81.16 27.8301 81.71 27.8301C82.26 27.8301 82.71 27.3801 82.71 26.8301V24.03C82.71 23.48 82.26 23.03 81.71 23.03C81.16 23.03 80.71 23.47 80.71 24.03Z" fill="black"/>
<path d="M88.7999 7.27004L86.82 9.25002C86.43 9.64002 86.43 10.2701 86.82 10.6601C87.21 11.0501 87.8399 11.0501 88.2299 10.6601L90.21 8.68007C90.6 8.29007 90.6 7.66004 90.21 7.27004C89.83 6.88004 89.1899 6.88004 88.7999 7.27004Z" fill="black"/>
<path d="M75.1699 20.9L73.19 22.88C72.8 23.27 72.8 23.9001 73.19 24.2901C73.58 24.6801 74.2099 24.6801 74.5999 24.2901L76.58 22.3101C76.97 21.9201 76.97 21.29 76.58 20.9C76.2 20.51 75.5599 20.51 75.1699 20.9Z" fill="black"/>
<path d="M92.7399 14.79H89.9399C89.3899 14.79 88.9399 15.24 88.9399 15.79C88.9399 16.34 89.3899 16.79 89.9399 16.79H92.7399C93.2899 16.79 93.7399 16.34 93.7399 15.79C93.7399 15.24 93.2999 14.79 92.7399 14.79Z" fill="black"/>
<path d="M73.4699 14.79H70.6699C70.1199 14.79 69.6699 15.24 69.6699 15.79C69.6699 16.34 70.1199 16.79 70.6699 16.79H73.4699C74.0199 16.79 74.4699 16.34 74.4699 15.79C74.4699 15.24 74.0199 14.79 73.4699 14.79Z" fill="black"/>
<path d="M90.2199 22.88L88.2399 20.9C87.8499 20.51 87.22 20.51 86.83 20.9C86.44 21.29 86.44 21.9201 86.83 22.3101L88.81 24.2901C89.2 24.6801 89.8299 24.6801 90.2199 24.2901C90.6099 23.9101 90.6099 23.27 90.2199 22.88Z" fill="black"/>
<path d="M76.5899 9.25002L74.6099 7.27004C74.2199 6.88004 73.59 6.88004 73.2 7.27004C72.81 7.66004 72.81 8.29007 73.2 8.68007L75.18 10.6601C75.57 11.0501 76.1999 11.0501 76.5899 10.6601C76.9799 10.2701 76.9799 9.64002 76.5899 9.25002Z" fill="black"/>
</svg>
