<svg width="100" height="100" viewBox="0 0 100 100" fill="none" xmlns="http://www.w3.org/2000/svg">
<path d="M57 76.9299V74.9299H43C38.02 74.9299 33.54 72.9199 30.27 69.6599C27.01 66.3999 25 61.9099 25 56.9299V30.9299H75V56.9299C75 61.9099 72.99 66.3899 69.73 69.6599C66.47 72.9199 61.98 74.9299 57 74.9299V76.9299V78.9299C69.15 78.9299 79 69.0799 79 56.9299V28.9299C79 28.3999 78.79 27.8899 78.41 27.5199C78.04 27.1499 77.52 26.9299 77 26.9299H23C22.47 26.9299 21.96 27.1399 21.59 27.5199C21.22 27.8899 21 28.4099 21 28.9299V56.9299C21 69.0799 30.85 78.9299 43 78.9299H57V76.9299Z" fill="black"/>
<path d="M37.26 28.9301V13.0801C37.26 11.9801 36.36 11.0801 35.26 11.0801C34.16 11.0801 33.26 11.9801 33.26 13.0801V28.9301C33.26 30.0301 34.16 30.9301 35.26 30.9301C36.36 30.9301 37.26 30.0301 37.26 28.9301Z" fill="black"/>
<path d="M66.74 28.9301V13.0801C66.74 11.9801 65.84 11.0801 64.74 11.0801C63.64 11.0801 62.74 11.9801 62.74 13.0801V28.9301C62.74 30.0301 63.64 30.9301 64.74 30.9301C65.85 30.9301 66.74 30.0301 66.74 28.9301Z" fill="black"/>
<path d="M56.87 76.9299V84.9299H43.13V76.9299H39.13V86.9299C39.13 87.4599 39.34 87.97 39.72 88.34C40.1 88.71 40.61 88.9299 41.13 88.9299H58.88C59.41 88.9299 59.92 88.72 60.29 88.34C60.66 87.97 60.88 87.4499 60.88 86.9299V76.9299H56.87Z" fill="black"/>
<path d="M50.06 39.6298L42.53 51.8898C42.15 52.5098 42.13 53.2799 42.49 53.9099C42.85 54.5399 43.51 54.9299 44.24 54.9299H52.2L46.54 64.1398C45.96 65.0798 46.26 66.3098 47.2 66.8898C48.14 67.4698 49.37 67.1699 49.95 66.2299L57.48 53.9799C57.86 53.3599 57.88 52.5899 57.52 51.9599C57.16 51.3299 56.5 50.9399 55.77 50.9399H47.81L53.47 41.7299C54.05 40.7899 53.75 39.5599 52.81 38.9799C51.87 38.3899 50.64 38.6898 50.06 39.6298Z" fill="black"/>
<path d="M17.64 30.9299H82.36C83.46 30.9299 84.36 30.0299 84.36 28.9299C84.36 27.8299 83.46 26.9299 82.36 26.9299H17.64C16.54 26.9299 15.64 27.8299 15.64 28.9299C15.64 30.0299 16.53 30.9299 17.64 30.9299Z" fill="black"/>
</svg>
