<svg width="100" height="100" viewBox="0 0 100 100" fill="none" xmlns="http://www.w3.org/2000/svg">
<path d="M81 85V83H19C18.44 83 17.95 82.78 17.59 82.41C17.22 82.04 17.01 81.55 17 81V29C17 28.44 17.22 27.9501 17.59 27.5901C17.96 27.2201 18.45 27.01 19 27H81C81.56 27 82.05 27.2201 82.41 27.5901C82.78 27.9601 82.99 28.45 83 29V81C83 81.56 82.78 82.05 82.41 82.41C82.04 82.78 81.55 82.99 81 83V85V87C84.31 87 87 84.31 87 81V29C87 25.69 84.31 23 81 23H19C15.69 23 13 25.69 13 29V81C13 84.31 15.69 87 19 87H81V85Z" fill="black"/>
<path d="M41.13 25V23H31.13V16H30.13V17C30.68 17 31.13 16.55 31.13 16H30.13V17H40.13V16H39.13C39.13 16.55 39.58 17 40.13 17V16H39.13V25H41.13V23V25H43.13V16C43.13 14.34 41.79 13 40.13 13H30.13C28.47 13 27.13 14.34 27.13 16V27H43.13V25H41.13Z" fill="black"/>
<path d="M70.87 25V23H60.87V16H59.87V17C60.42 17 60.87 16.55 60.87 16H59.87V17H69.87V16H68.87C68.87 16.55 69.32 17 69.87 17V16H68.87V25H70.87V23V25H72.87V16C72.87 14.34 71.53 13 69.87 13H59.87C58.21 13 56.87 14.34 56.87 16V27H72.87V25H70.87Z" fill="black"/>
<path d="M33.13 46.2001V62.2001C33.13 63.3001 34.03 64.2001 35.13 64.2001C36.23 64.2001 37.13 63.3001 37.13 62.2001V46.2001C37.13 45.1001 36.23 44.2001 35.13 44.2001C34.03 44.2001 33.13 45.1001 33.13 46.2001Z" fill="black"/>
<path d="M43.13 52.2001H27.13C26.03 52.2001 25.13 53.1001 25.13 54.2001C25.13 55.3001 26.03 56.2001 27.13 56.2001H43.13C44.23 56.2001 45.13 55.3001 45.13 54.2001C45.13 53.1001 44.24 52.2001 43.13 52.2001Z" fill="black"/>
<path d="M72.87 53H56.87C55.77 53 54.87 53.9 54.87 55C54.87 56.1 55.77 57 56.87 57H72.87C73.97 57 74.87 56.1 74.87 55C74.87 53.89 73.97 53 72.87 53Z" fill="black"/>
</svg>
