<svg width="16" height="16" viewBox="0 0 16 16" fill="none" xmlns="http://www.w3.org/2000/svg">
<g id="start icon">
<path id="primary-shape" d="M11.7065 14C11.5999 14.0004 11.4947 13.9753 11.3998 13.9267L7.99984 12.1467L4.59984 13.9267C4.48944 13.9847 4.36496 14.0106 4.24056 14.0015C4.11616 13.9923 3.99683 13.9484 3.89613 13.8748C3.79543 13.8012 3.7174 13.7008 3.67092 13.585C3.62443 13.4693 3.61136 13.3428 3.63318 13.22L4.29984 9.46667L1.55318 6.8C1.46748 6.71449 1.40669 6.60725 1.37733 6.4898C1.34796 6.37235 1.35114 6.24912 1.38651 6.13334C1.42515 6.01485 1.49623 5.90957 1.59168 5.82944C1.68712 5.74931 1.80312 5.69754 1.92651 5.68L5.72651 5.12667L7.39984 1.70667C7.45443 1.59396 7.53967 1.4989 7.64578 1.43239C7.7519 1.36587 7.8746 1.3306 7.99984 1.3306C8.12508 1.3306 8.24779 1.36587 8.3539 1.43239C8.46002 1.4989 8.54525 1.59396 8.59984 1.70667L10.2932 5.12L14.0932 5.67334C14.2166 5.69087 14.3326 5.74265 14.428 5.82278C14.5235 5.90291 14.5945 6.00819 14.6332 6.12667C14.6685 6.24245 14.6717 6.36568 14.6424 6.48313C14.613 6.60058 14.5522 6.70782 14.4665 6.79334L11.7198 9.46L12.3865 13.2133C12.4103 13.3383 12.3978 13.4675 12.3506 13.5856C12.3033 13.7038 12.2233 13.8059 12.1198 13.88C11.9991 13.9646 11.8538 14.0068 11.7065 14Z" fill="#006C9C"/>
</g>
</svg>
