<svg width="84" height="63" viewBox="0 0 84 63" fill="none" xmlns="http://www.w3.org/2000/svg">
<g id="vector">
<path id="color" d="M10 0.00415039C7.96199 1.51693 6.16091 2.90045 4.71576 4.03055C2.30778 5.91356 0.79834 8.69055 0.59464 11.7406C0.31746 15.891 0 22.8582 0 33.0002C0 42.5914 0.56784 49.3432 1.09838 53.5586C1.53582 57.0342 3.86276 59.7904 7.29354 60.4986C12.7945 61.634 23.2988 63.0002 42 63.0002C60.7012 63.0002 71.2056 61.634 76.7064 60.4986C80.1372 59.7904 82.4642 57.0342 82.9016 53.5586C83.4322 49.3432 84 42.5914 84 33.0002C84 22.8582 83.6826 15.891 83.4054 11.7406C83.2016 8.69055 81.6922 5.91356 79.2842 4.03055C77.8391 2.90045 76.038 1.51693 74 0.00415955V14.82C74 17.4388 72.7276 19.8874 70.5372 21.3226C63.7666 25.7586 48.84 35.0002 42 35.0002C35.16 35.0002 20.2334 25.7586 13.4628 21.3226C11.2723 19.8874 10 17.4388 10 14.82V0.00415039Z" fill="#00A76F"/>
<g id="overlay" style="mix-blend-mode:overlay" filter="url(#filter0_i_1969_147347)">
<path d="M10 0.00415039C7.96199 1.51693 6.16091 2.90045 4.71576 4.03055C2.30778 5.91356 0.79834 8.69055 0.59464 11.7406C0.31746 15.891 0 22.8582 0 33.0002C0 42.5914 0.56784 49.3432 1.09838 53.5586C1.53582 57.0342 3.86276 59.7904 7.29354 60.4986C12.7945 61.634 23.2988 63.0002 42 63.0002C60.7012 63.0002 71.2056 61.634 76.7064 60.4986C80.1372 59.7904 82.4642 57.0342 82.9016 53.5586C83.4322 49.3432 84 42.5914 84 33.0002C84 22.8582 83.6826 15.891 83.4054 11.7406C83.2016 8.69055 81.6922 5.91356 79.2842 4.03055C77.8391 2.90045 76.038 1.51693 74 0.00415955V14.82C74 17.4388 72.7276 19.8874 70.5372 21.3226C63.7666 25.7586 48.84 35.0002 42 35.0002C35.16 35.0002 20.2334 25.7586 13.4628 21.3226C11.2723 19.8874 10 17.4388 10 14.82V0.00415039Z" fill="white" fill-opacity="0.08"/>
</g>
</g>
<defs>
<filter id="filter0_i_1969_147347" x="-2" y="-1.99585" width="86" height="64.996" filterUnits="userSpaceOnUse" color-interpolation-filters="sRGB">
<feFlood flood-opacity="0" result="BackgroundImageFix"/>
<feBlend mode="normal" in="SourceGraphic" in2="BackgroundImageFix" result="shape"/>
<feColorMatrix in="SourceAlpha" type="matrix" values="0 0 0 0 0 0 0 0 0 0 0 0 0 0 0 0 0 0 127 0" result="hardAlpha"/>
<feOffset dx="-2" dy="-2"/>
<feGaussianBlur stdDeviation="2"/>
<feComposite in2="hardAlpha" operator="arithmetic" k2="-1" k3="1"/>
<feColorMatrix type="matrix" values="0 0 0 0 0 0 0 0 0 0 0 0 0 0 0 0 0 0 0.24 0"/>
<feBlend mode="normal" in2="shape" result="effect1_innerShadow_1969_147347"/>
</filter>
</defs>
</svg>
