<svg width="15" height="15" viewBox="0 0 15 15" fill="none" xmlns="http://www.w3.org/2000/svg">
<g id="arrows-expand">
<path id="arrows-expand_2" d="M13.5938 1.875V5.625C13.5938 5.88375 13.3837 6.09375 13.125 6.09375C12.8663 6.09375 12.6562 5.88375 12.6562 5.625V3.0069L9.08127 6.58188C8.99002 6.67313 8.87 6.71936 8.75 6.71936C8.63 6.71936 8.50998 6.67375 8.41873 6.58188C8.23561 6.39875 8.23561 6.10186 8.41873 5.91873L11.9937 2.34375H9.375C9.11625 2.34375 8.90625 2.13375 8.90625 1.875C8.90625 1.61625 9.11625 1.40625 9.375 1.40625H13.125C13.1862 1.40625 13.2469 1.41882 13.3044 1.44257C13.4188 1.49007 13.5101 1.58132 13.5582 1.69632C13.5813 1.75319 13.5938 1.81375 13.5938 1.875ZM5.91873 8.41873L2.34375 11.9937V9.375C2.34375 9.11625 2.13375 8.90625 1.875 8.90625C1.61625 8.90625 1.40625 9.11625 1.40625 9.375V13.125C1.40625 13.1862 1.41882 13.2469 1.44257 13.3044C1.49007 13.4188 1.58118 13.5099 1.69556 13.5574C1.75306 13.5812 1.81375 13.5938 1.875 13.5938H5.625C5.88375 13.5938 6.09375 13.3837 6.09375 13.125C6.09375 12.8663 5.88375 12.6562 5.625 12.6562H3.0069L6.58188 9.08127C6.765 8.89814 6.765 8.60125 6.58188 8.41812C6.39875 8.235 6.10186 8.23561 5.91873 8.41873Z" fill="#1E293B"/>
</g>
</svg>
