<svg width="200" height="151" viewBox="0 0 200 151" fill="none" xmlns="http://www.w3.org/2000/svg">
<g id="illustrations/background" opacity="0.2">
<mask id="mask0_1191_7120" style="mask-type:alpha" maskUnits="userSpaceOnUse" x="0" y="0" width="200" height="151">
<path id="mask" opacity="0.48" fill-rule="evenodd" clip-rule="evenodd" d="M0 83.3253C0 100.599 6.22724 116.34 16.4746 128.236C28.2306 141.888 45.278 150.471 64.2803 150.5C72.585 150.512 80.5259 148.88 87.8199 145.901C91.5913 144.361 95.8124 144.537 99.4651 146.363C103.75 148.502 108.548 149.701 113.614 149.701C115.707 149.701 117.756 149.495 119.739 149.103C125.397 147.991 130.547 145.358 134.776 141.628C137.434 139.284 140.838 138.105 144.317 138.109H144.376C155.871 138.109 166.549 134.471 175.414 128.236C183.34 122.669 189.812 115.029 194.124 106.059C197.884 98.2421 200 89.4117 200 80.0658C200 48.0113 175.094 22.0222 144.376 22.0222C141.244 22.0222 138.176 22.2982 135.183 22.8132C127.257 9.42503 113.065 0.5 96.8743 0.5C90.0388 0.5 83.5585 2.0907 77.7578 4.94218C72.2413 7.64514 67.3365 11.4859 63.3243 16.1667C49.7006 16.3933 37.1033 21.0375 26.7929 28.7881C10.5631 40.9813 0 60.8676 0 83.3253Z" fill="url(#paint0_linear_1191_7120)"/>
</mask>
<g mask="url(#mask0_1191_7120)">
<rect id="color" y="0.5" width="200" height="150" fill="#00A76F"/>
</g>
</g>
<defs>
<linearGradient id="paint0_linear_1191_7120" x1="100" y1="150.5" x2="177.883" y2="11.0074" gradientUnits="userSpaceOnUse">
<stop/>
<stop offset="1" stop-opacity="0.01"/>
</linearGradient>
</defs>
</svg>
