<svg width="480" height="360" viewBox="0 0 480 360" fill="none" xmlns="http://www.w3.org/2000/svg">
<g opacity="0.2">
<mask id="mask0_1_36560" style="mask-type:alpha" maskUnits="userSpaceOnUse" x="0" y="0" width="480" height="360">
<path opacity="0.48" fill-rule="evenodd" clip-rule="evenodd" d="M0 198.781C0 240.238 14.9454 278.016 39.539 306.566C67.7534 339.331 108.667 359.931 154.273 360C174.204 360.029 193.262 356.113 210.768 348.964C219.819 345.265 229.95 345.69 238.716 350.071C248.999 355.204 260.514 358.082 272.673 358.082C277.696 358.082 282.615 357.587 287.373 356.648C300.954 353.978 313.313 347.658 323.462 338.708C329.841 333.081 338.01 330.252 346.36 330.262H346.502C374.091 330.262 399.717 321.53 420.994 306.566C440.015 293.206 455.548 274.87 465.898 253.341C474.92 234.581 480 213.388 480 190.958C480 114.027 420.226 51.6534 346.502 51.6534C338.986 51.6534 331.622 52.3158 324.439 53.5518C305.418 21.4201 271.355 0 232.498 0C216.093 0 200.54 3.81769 186.619 10.6612C173.379 17.1483 161.608 26.3663 151.978 37.6C119.281 38.144 89.048 49.2899 64.303 67.8914C25.3514 97.1552 0 144.882 0 198.781Z" fill="url(#paint0_linear_1_36560)"/>
</mask>
<g mask="url(#mask0_1_36560)">
<rect width="480" height="360" fill="#00A76F"/>
</g>
</g>
<path opacity="0.08" d="M70.5994 79.545C70.5994 76.8449 71.2994 74.145 72.5994 71.745C73.8994 69.345 75.6994 67.3449 77.9994 65.8449C80.2994 64.3449 82.8994 63.445 85.5994 63.1449C88.2994 62.8449 90.9994 63.245 93.5994 64.245C95.3994 60.445 98.3994 57.445 102.099 55.4449C105.799 53.4449 109.999 52.6449 114.099 53.1449C118.199 53.6449 122.099 55.4449 125.199 58.2449C128.299 61.0449 130.499 64.745 131.399 68.845C135.899 69.145 140.099 71.145 143.099 74.545C146.099 77.8449 147.699 82.2449 147.599 86.7449C147.499 91.2449 145.599 95.445 142.399 98.645C139.199 101.745 134.899 103.545 130.399 103.545H74.8994C71.9994 103.545 69.1994 102.545 66.9994 100.745C64.7994 98.945 63.2994 96.345 62.7994 93.545C62.2994 90.745 62.7994 87.8449 64.1994 85.2449C65.5994 82.5449 67.8994 80.545 70.5994 79.545ZM266.299 215.545C266.299 213.845 266.699 212.245 267.499 210.745C268.299 209.245 269.399 208.045 270.799 207.045C272.199 206.145 273.799 205.545 275.499 205.345C277.199 205.145 278.899 205.445 280.399 206.045C281.499 203.745 283.399 201.845 285.599 200.545C287.799 199.245 290.499 198.845 292.999 199.145C295.599 199.445 297.999 200.545 299.899 202.245C301.799 203.945 303.099 206.245 303.699 208.745C306.499 208.945 309.099 210.145 310.899 212.245C312.799 214.345 313.799 217.045 313.699 219.745C313.599 222.545 312.399 225.145 310.399 227.045C308.399 228.945 305.699 230.045 302.899 230.045H268.899C267.099 230.045 265.399 229.445 264.099 228.245C262.699 227.145 261.799 225.545 261.499 223.845C261.199 222.145 261.499 220.345 262.299 218.745C263.299 217.445 264.699 216.245 266.299 215.545ZM82.0994 185.145C82.0994 182.245 82.7994 179.445 84.1994 176.945C85.5994 174.445 87.4994 172.245 89.8994 170.745C92.2994 169.145 94.9994 168.145 97.7994 167.845C100.599 167.545 103.499 167.945 106.099 169.045C107.999 165.145 111.099 161.845 114.999 159.745C118.799 157.645 123.199 156.745 127.599 157.345C131.999 157.845 135.999 159.745 139.299 162.645C142.499 165.545 144.799 169.445 145.799 173.745C150.599 173.945 155.199 175.945 158.499 179.445C161.799 182.945 163.599 187.645 163.399 192.445C163.199 197.245 161.199 201.845 157.699 205.145C154.199 208.445 149.499 210.245 144.699 210.045H86.6994C83.6994 210.045 80.7994 208.945 78.4994 207.045C76.1994 205.145 74.5994 202.445 74.0994 199.445C73.5994 196.445 74.0994 193.445 75.4994 190.845C76.8994 188.245 79.2994 186.245 82.0994 185.145ZM262.499 100.745C262.499 98.7449 262.999 96.845 263.999 95.145C264.899 93.445 266.299 91.945 267.899 90.845C269.499 89.745 271.399 89.045 273.399 88.845C275.399 88.645 277.299 88.945 279.199 89.645C280.499 86.945 282.699 84.745 285.299 83.245C287.999 81.845 290.999 81.245 293.999 81.545C296.999 81.945 299.799 83.1449 302.099 85.2449C304.399 87.2449 305.899 89.945 306.599 92.845C309.899 92.945 313.099 94.345 315.399 96.845C317.699 99.245 318.899 102.545 318.799 105.845C318.699 109.145 317.299 112.345 314.799 114.645C312.399 116.945 309.099 118.145 305.799 118.045H265.699C263.599 118.045 261.599 117.345 259.999 115.945C258.399 114.645 257.299 112.745 256.899 110.745C256.499 108.645 256.899 106.545 257.899 104.745C258.899 102.845 260.599 101.445 262.499 100.745Z" fill="#00A76F"/>
<path opacity="0.24" d="M185.3 306.146C260 306.146 320.6 302.646 320.6 298.246C320.6 293.846 260 290.346 185.3 290.346C110.6 290.346 50 293.846 50 298.246C50 302.646 110.5 306.146 185.3 306.146Z" fill="#004B50"/>
<path d="M138.6 75.7461H151.4C159.4 75.7461 167.2 78.0461 173.9 82.4461C180.8 86.9461 186.2 93.3461 189.3 100.946C196.9 101.446 204.1 104.246 209.9 109.146C215.7 114.046 219.8 120.646 221.5 127.946C226.6 129.446 231 132.646 234 137.146C236.9 141.646 238.1 146.946 237.4 152.246C236.7 157.546 234 162.346 230 165.846C226 169.346 220.8 171.246 215.5 171.246H90.4998C85.7998 171.346 81.1998 170.446 76.8998 168.746C72.5998 167.046 68.5998 164.446 65.2998 161.146C61.9998 157.846 59.2998 153.946 57.4998 149.646C55.6998 145.346 54.7998 140.746 54.7998 136.046C54.7998 131.346 55.6998 126.746 57.4998 122.446C59.2998 118.146 61.8998 114.246 65.2998 110.946C68.5998 107.646 72.5998 105.046 76.8998 103.346C81.1998 101.646 85.8998 100.746 90.4998 100.846H100.7C103.8 93.4461 109.1 87.0461 115.8 82.6461C122.6 78.1461 130.5 75.7461 138.6 75.7461Z" fill="url(#paint1_linear_1_36560)"/>
<path d="M124.2 171.246H140.6V187.746C140.6 189.546 139.9 191.346 138.6 192.646C138 193.246 137.4 193.646 136.7 193.946V204.546C136.7 205.546 136.3 206.446 135.6 207.146C135 207.746 134.1 208.146 133.3 208.246H134.1V212.446C134.1 216.746 135.8 220.946 138.9 224.046C142 227.146 146.1 228.846 150.5 228.846H187.1V232.346H150.5C145.2 232.346 140.2 230.246 136.4 226.546C132.7 222.846 130.6 217.746 130.6 212.446V208.146H131.4C130.5 208.046 129.7 207.746 129.1 207.046C128.4 206.346 128 205.446 128 204.446V193.846C127.3 193.546 126.7 193.046 126.1 192.546C124.8 191.246 124.1 189.546 124.1 187.646V171.246H124.2Z" fill="url(#paint2_linear_1_36560)"/>
<path fill-rule="evenodd" clip-rule="evenodd" d="M216.1 130.245L217.7 130.645C222.2 131.945 226 134.745 228.6 138.645C231.1 142.545 232.2 147.245 231.5 151.845C230.9 156.445 228.6 160.645 225.1 163.745C221.6 166.845 217.1 168.445 212.4 168.445H103.3C94.9003 168.445 86.8003 165.045 80.7003 159.145C74.7003 153.245 71.2003 145.245 71.0003 136.745C70.8003 128.345 73.9003 120.145 79.6003 114.045C85.4003 107.845 93.3003 104.145 101.8 103.645H103.3C106.2 103.645 109.2 104.045 112 104.845L112.2 104.945L114.7 105.645L115.6 103.245C118.3 96.2445 123 90.1445 129.1 85.8445C135.2 81.4445 142.4 78.9445 149.9 78.6445C157.2 78.9445 164.2 81.2445 170.2 85.4445C176.2 89.6445 180.9 95.3445 183.7 102.145L184.4 103.745L186.1 103.845C193 104.245 199.7 106.945 205 111.445C210.3 115.945 214.1 121.945 215.7 128.745L216.1 130.245ZM137.4 154.645V126.945H128.6L151.4 101.345L174.2 126.945H165.4V154.645H137.4Z" fill="#C8FAD6"/>
<path opacity="0.48" d="M297.8 112.745C298 112.445 298.1 112.145 298.1 111.745C298.1 111.245 297.9 110.845 297.6 110.545C297.3 110.245 296.8 110.045 296.4 110.045C296.1 110.045 295.7 110.145 295.4 110.345C295.1 110.545 294.9 110.845 294.8 111.145C294.7 111.445 294.6 111.845 294.7 112.145C294.8 112.445 294.9 112.745 295.2 113.045C295.4 113.245 295.7 113.445 296.1 113.545C296.4 113.645 296.8 113.545 297.1 113.445C297.3 113.245 297.6 112.945 297.8 112.745ZM102.6 203.245C102.9 202.845 103 202.345 103 201.745C103 201.045 102.7 200.345 102.2 199.845C101.7 199.345 101 199.045 100.3 199.045C99.7998 199.045 99.2998 199.245 98.7998 199.445C98.3998 199.745 97.9998 200.145 97.7998 200.645C97.5998 201.145 97.4998 201.645 97.5998 202.145C97.6998 202.645 97.9998 203.145 98.2998 203.445C98.6998 203.845 99.0998 204.045 99.6998 204.145C100.2 204.245 100.7 204.245 101.2 204.045C101.9 204.045 102.3 203.645 102.6 203.245ZM304.5 111.745C304.5 112.045 304.4 112.445 304.2 112.745C304 113.045 303.7 113.245 303.4 113.345C303.1 113.445 302.7 113.545 302.4 113.445C302.1 113.345 301.8 113.245 301.5 112.945C301.3 112.745 301.1 112.445 301 112.045C300.9 111.745 301 111.345 301.1 111.045C301.2 110.745 301.4 110.445 301.7 110.245C302 110.045 302.3 109.945 302.7 109.945C303.2 109.945 303.6 110.145 303.9 110.445C304.3 110.845 304.5 111.245 304.5 111.745ZM138.4 183.645C138.4 184.845 137.4 185.845 136.2 185.845C135 185.845 134 184.845 134 183.645C134 182.445 135 181.445 136.2 181.445C137.4 181.545 138.4 182.445 138.4 183.645Z" fill="#C8FAD6"/>
<path opacity="0.12" d="M291.6 111.745C291.6 112.045 291.5 112.445 291.3 112.745C291.1 113.045 290.8 113.245 290.5 113.345C290.2 113.445 289.8 113.545 289.5 113.445C289.2 113.345 288.9 113.245 288.6 112.945C288.4 112.745 288.2 112.445 288.1 112.045C288 111.745 288.1 111.345 288.2 111.045C288.3 110.745 288.6 110.445 288.8 110.245C289.1 110.045 289.4 109.945 289.8 109.945C290.3 109.945 290.7 110.145 291 110.445C291.5 110.845 291.6 111.245 291.6 111.745ZM93.0996 201.745C93.0996 202.245 92.8996 202.745 92.6996 203.245C92.3996 203.645 91.9996 204.045 91.4996 204.245C90.9996 204.445 90.4996 204.545 89.9996 204.345C89.4996 204.245 88.9996 203.945 88.5996 203.645C88.1996 203.345 87.9996 202.845 87.8996 202.345C87.7996 201.845 87.8996 201.345 88.0996 200.845C88.2996 200.345 88.5996 199.945 89.0996 199.645C89.4996 199.345 89.9996 199.245 90.5996 199.245C91.2996 199.245 91.9996 199.545 92.4996 200.045C92.7996 200.445 93.0996 201.045 93.0996 201.745ZM132.6 183.645C132.6 184.845 131.6 185.845 130.4 185.845C129.2 185.845 128.2 184.845 128.2 183.645C128.2 182.445 129.2 181.445 130.4 181.445C131.6 181.445 132.6 182.445 132.6 183.645Z" fill="#C8FAD6"/>
<path d="M256.3 144.746H196.3C191.3 144.746 187.2 148.846 187.2 153.846V289.146C187.2 294.146 191.3 298.246 196.3 298.246H256.3C261.3 298.246 265.4 294.146 265.4 289.146V153.846C265.4 148.846 261.3 144.746 256.3 144.746Z" fill="#00A76F"/>
<path d="M256.3 298.246H272.6C277.6 298.246 281.7 294.146 281.7 289.146V153.846C281.7 148.846 277.6 144.746 272.6 144.746H256.3C261.3 144.746 265.4 148.846 265.4 153.846V289.146C265.4 294.146 261.3 298.246 256.3 298.246Z" fill="#007867"/>
<path d="M262.4 289.146V153.846C262.4 150.546 259.7 147.746 256.3 147.746H199.1C195.8 147.746 193 150.446 193 153.846V289.146C193 292.446 195.7 295.246 199.1 295.246H256.3C259.6 295.246 262.4 292.446 262.4 289.146Z" fill="white"/>
<path opacity="0.24" fill-rule="evenodd" clip-rule="evenodd" d="M202.5 165.545H252.9C254.1 165.545 255.3 165.045 256.2 164.145C257.1 163.245 257.6 162.045 257.6 160.845C257.6 159.545 257.1 158.345 256.2 157.545C255.3 156.645 254.1 156.145 252.9 156.145H202.5C201.3 156.145 200.1 156.645 199.2 157.545C198.3 158.445 197.8 159.645 197.8 160.845C197.8 162.045 198.3 163.245 199.2 164.145C200.1 165.045 201.2 165.545 202.5 165.545ZM201.7 161.845H236.3C236.6 161.845 236.8 161.745 237 161.545C237.2 161.345 237.3 161.045 237.3 160.845C237.3 160.745 237.3 160.545 237.2 160.445C237.1 160.345 237.1 160.245 237 160.145C236.9 160.045 236.8 159.945 236.7 159.945C236.6 159.845 236.4 159.845 236.3 159.845H201.7C201.4 159.845 201.2 159.945 201 160.145C200.8 160.345 200.7 160.645 200.7 160.845C200.7 160.945 200.7 161.145 200.8 161.245C200.9 161.345 200.9 161.445 201 161.545C201.1 161.645 201.2 161.745 201.3 161.745C201.5 161.845 201.6 161.845 201.7 161.845ZM202.5 180.745H252.9C254.1 180.745 255.3 180.245 256.2 179.345C257.1 178.445 257.6 177.245 257.6 176.045C257.6 174.845 257.1 173.645 256.2 172.745C255.3 171.845 254.1 171.345 252.9 171.345H202.5C201.3 171.345 200.1 171.845 199.2 172.745C198.3 173.645 197.8 174.845 197.8 176.045C197.8 177.345 198.3 178.445 199.2 179.345C200 180.245 201.2 180.745 202.5 180.745ZM201.7 177.045H236.3C236.6 177.045 236.8 176.945 237 176.745C237.2 176.545 237.3 176.245 237.3 176.045C237.3 175.745 237.2 175.545 237 175.345C236.8 175.145 236.5 175.045 236.3 175.045H201.7C201.4 175.045 201.2 175.145 201 175.345C200.8 175.545 200.7 175.845 200.7 176.045C200.7 176.345 200.8 176.545 201 176.745C201.2 176.945 201.5 177.045 201.7 177.045ZM202.5 195.945H252.9C254.1 195.945 255.3 195.445 256.2 194.545C257.1 193.645 257.6 192.445 257.6 191.245C257.6 189.945 257.1 188.745 256.2 187.945C255.3 187.045 254.1 186.545 252.9 186.545H202.5C201.2 186.545 200.1 187.045 199.2 187.945C198.3 188.845 197.8 190.045 197.8 191.245C197.8 192.445 198.3 193.645 199.2 194.545C200.1 195.345 201.2 195.845 202.5 195.945ZM201.7 192.245H236.3C236.6 192.245 236.8 192.145 237 191.945C237.2 191.745 237.3 191.445 237.3 191.245C237.3 191.145 237.3 190.945 237.2 190.845C237.1 190.745 237.1 190.645 237 190.545C236.9 190.445 236.8 190.345 236.7 190.345C236.6 190.345 236.4 190.245 236.3 190.245H201.7C201.4 190.245 201.2 190.345 201 190.545C200.8 190.745 200.7 191.045 200.7 191.245C200.7 191.345 200.7 191.545 200.8 191.645C200.9 191.745 200.9 191.845 201 191.945C201.1 192.045 201.2 192.145 201.3 192.145C201.5 192.145 201.6 192.245 201.7 192.245ZM202.5 201.645H252.9C255.5 201.645 257.6 203.745 257.6 206.345C257.6 208.945 255.5 211.045 252.9 211.045H202.5C199.9 211.045 197.8 208.945 197.8 206.345C197.8 203.745 199.9 201.645 202.5 201.645ZM201.7 207.345H236.3C236.6 207.345 236.8 207.245 237 207.045C237.2 206.845 237.3 206.545 237.3 206.345C237.3 206.045 237.2 205.845 237 205.645C236.8 205.445 236.5 205.345 236.3 205.345H201.7C201.4 205.345 201.2 205.445 201 205.645C200.8 205.845 200.7 206.145 200.7 206.345C200.7 206.545 200.8 206.845 201 207.045C201.2 207.245 201.5 207.345 201.7 207.345ZM252.9 226.245H202.5C201.3 226.245 200.1 225.745 199.2 224.845C198.3 223.945 197.8 222.745 197.8 221.545C197.8 220.245 198.3 219.145 199.2 218.245C200.1 217.345 201.3 216.845 202.5 216.845H252.9C254.2 216.845 255.4 217.345 256.2 218.245C257.1 219.145 257.6 220.345 257.6 221.545C257.6 222.745 257.1 223.945 256.2 224.845C255.4 225.745 254.2 226.245 252.9 226.245ZM236.3 222.545H201.7C201.6 222.545 201.4 222.545 201.3 222.445C201.2 222.345 201.1 222.345 201 222.245C200.9 222.145 200.8 222.045 200.8 221.945C200.7 221.845 200.7 221.645 200.7 221.545C200.7 221.445 200.7 221.245 200.8 221.145C200.9 221.045 200.9 220.945 201 220.845C201.1 220.745 201.2 220.645 201.3 220.645C201.4 220.545 201.6 220.545 201.7 220.545H236.3C236.4 220.545 236.6 220.545 236.7 220.645C236.8 220.745 236.9 220.745 237 220.845C237.1 220.945 237.2 221.045 237.2 221.145C237.3 221.245 237.3 221.445 237.3 221.545C237.3 221.845 237.2 222.045 237 222.245C236.8 222.445 236.6 222.545 236.3 222.545ZM202.5 241.445H252.9C254.2 241.445 255.4 240.945 256.2 240.045C257.1 239.145 257.6 237.945 257.6 236.745C257.6 235.545 257.1 234.345 256.2 233.445C255.3 232.545 254.1 232.045 252.9 232.045H202.5C201.3 232.045 200.1 232.545 199.2 233.445C198.3 234.345 197.8 235.545 197.8 236.745C197.8 237.945 198.3 239.145 199.2 240.045C200 240.845 201.2 241.345 202.5 241.445ZM201.7 237.745H236.3C236.6 237.745 236.8 237.645 237 237.445C237.2 237.245 237.3 236.945 237.3 236.745C237.3 236.445 237.2 236.245 237 236.045C236.8 235.845 236.5 235.745 236.3 235.745H201.7C201.6 235.745 201.4 235.745 201.3 235.845C201.2 235.945 201.1 235.945 201 236.045C200.9 236.145 200.8 236.245 200.8 236.345C200.7 236.445 200.7 236.645 200.7 236.745C200.7 237.045 200.8 237.245 201 237.445C201.2 237.645 201.5 237.745 201.7 237.745ZM252.9 256.545H202.5C201.3 256.545 200.1 256.045 199.2 255.145C198.3 254.245 197.8 253.045 197.8 251.845C197.8 250.545 198.3 249.445 199.2 248.545C200.1 247.645 201.3 247.145 202.5 247.145H252.9C254.2 247.145 255.4 247.645 256.2 248.545C257.1 249.445 257.6 250.645 257.6 251.845C257.6 253.045 257.1 254.245 256.2 255.145C255.4 256.045 254.2 256.545 252.9 256.545ZM236.3 252.845H201.7C201.4 252.845 201.2 252.745 201 252.545C200.8 252.345 200.7 252.045 200.7 251.845C200.7 251.545 200.8 251.345 201 251.145C201.2 250.945 201.5 250.845 201.7 250.845H236.3C236.4 250.845 236.6 250.845 236.7 250.945C236.8 251.045 236.9 251.045 237 251.145C237.1 251.245 237.2 251.345 237.2 251.445C237.3 251.545 237.3 251.745 237.3 251.845C237.3 252.145 237.2 252.345 237 252.545C236.8 252.745 236.6 252.845 236.3 252.845ZM202.5 262.345H252.9C255.5 262.345 257.6 264.445 257.6 267.045C257.6 269.645 255.5 271.745 252.9 271.745H202.5C199.9 271.745 197.8 269.645 197.8 267.045C197.8 264.445 199.9 262.345 202.5 262.345ZM201.7 268.045H236.3C236.6 268.045 236.8 267.945 237 267.745C237.2 267.545 237.3 267.245 237.3 267.045C237.3 266.745 237.2 266.545 237 266.345C236.8 266.145 236.5 266.045 236.3 266.045H201.7C201.4 266.045 201.2 266.145 201 266.345C200.8 266.545 200.7 266.845 200.7 267.045C200.7 267.145 200.7 267.345 200.8 267.445C200.9 267.545 200.9 267.645 201 267.745C201.1 267.845 201.2 267.945 201.3 267.945C201.4 267.945 201.6 268.045 201.7 268.045ZM252.9 286.945H202.5C201.3 286.945 200.1 286.445 199.2 285.545C198.3 284.645 197.8 283.445 197.8 282.245C197.8 280.945 198.3 279.845 199.2 278.945C200.1 278.045 201.3 277.545 202.5 277.545H252.9C254.2 277.545 255.4 278.045 256.2 278.945C257.1 279.845 257.6 281.045 257.6 282.245C257.6 283.545 257.1 284.645 256.2 285.545C255.4 286.445 254.2 286.945 252.9 286.945ZM236.3 283.245H201.7C201.4 283.245 201.2 283.145 201 282.945C200.8 282.745 200.7 282.445 200.7 282.245C200.7 281.945 200.8 281.745 201 281.545C201.2 281.345 201.5 281.245 201.7 281.245H236.3C236.4 281.245 236.6 281.245 236.7 281.345C236.8 281.445 236.9 281.445 237 281.545C237.1 281.645 237.2 281.745 237.2 281.845C237.3 281.945 237.3 282.145 237.3 282.245C237.3 282.545 237.2 282.745 237 282.945C236.8 283.145 236.6 283.245 236.3 283.245Z" fill="#00A76F"/>
<path d="M248.8 161.846C249.4 161.846 249.8 161.346 249.8 160.846C249.8 160.246 249.3 159.846 248.8 159.846C248.2 159.846 247.8 160.346 247.8 160.846C247.7 161.446 248.2 161.846 248.8 161.846ZM248.8 177.046C249.4 177.046 249.8 176.546 249.8 176.046C249.8 175.446 249.3 175.046 248.8 175.046C248.2 175.046 247.8 175.546 247.8 176.046C247.7 176.546 248.2 177.046 248.8 177.046ZM248.8 192.246C249.4 192.246 249.8 191.746 249.8 191.246C249.8 190.646 249.3 190.246 248.8 190.246C248.2 190.246 247.8 190.746 247.8 191.246C247.7 191.746 248.2 192.246 248.8 192.246ZM244.2 207.346C244.8 207.346 245.2 206.846 245.2 206.346C245.2 205.746 244.7 205.346 244.2 205.346C243.6 205.346 243.2 205.846 243.2 206.346C243.2 206.946 243.6 207.346 244.2 207.346ZM244.2 222.546C244.8 222.546 245.2 222.046 245.2 221.546C245.2 220.946 244.7 220.546 244.2 220.546C243.6 220.546 243.2 221.046 243.2 221.546C243.2 222.046 243.6 222.546 244.2 222.546ZM244.2 237.746C244.8 237.746 245.2 237.246 245.2 236.746C245.2 236.146 244.7 235.746 244.2 235.746C243.6 235.746 243.2 236.246 243.2 236.746C243.2 237.246 243.6 237.746 244.2 237.746ZM244.2 252.846C244.8 252.846 245.2 252.346 245.2 251.846C245.2 251.246 244.7 250.846 244.2 250.846C243.6 250.846 243.2 251.346 243.2 251.846C243.2 252.446 243.6 252.846 244.2 252.846ZM248.8 268.046C249.4 268.046 249.8 267.546 249.8 267.046C249.8 266.446 249.3 266.046 248.8 266.046C248.2 266.046 247.8 266.546 247.8 267.046C247.7 267.546 248.2 268.046 248.8 268.046ZM248.8 283.246C249.4 283.246 249.8 282.746 249.8 282.246C249.8 281.646 249.3 281.246 248.8 281.246C248.2 281.246 247.8 281.746 247.8 282.246C247.7 282.746 248.2 283.246 248.8 283.246Z" fill="#FFAB00"/>
<path d="M253.3 161.846C253.9 161.846 254.3 161.346 254.3 160.846C254.3 160.246 253.8 159.846 253.3 159.846C252.7 159.846 252.3 160.346 252.3 160.846C252.3 161.446 252.7 161.846 253.3 161.846ZM253.3 177.046C253.9 177.046 254.3 176.546 254.3 176.046C254.3 175.446 253.8 175.046 253.3 175.046C252.7 175.046 252.3 175.546 252.3 176.046C252.3 176.546 252.7 177.046 253.3 177.046ZM253.3 192.246C253.9 192.246 254.3 191.746 254.3 191.246C254.3 190.646 253.8 190.246 253.3 190.246C252.7 190.246 252.3 190.746 252.3 191.246C252.3 191.746 252.7 192.246 253.3 192.246ZM248.8 207.346C249.4 207.346 249.8 206.846 249.8 206.346C249.8 205.746 249.3 205.346 248.8 205.346C248.2 205.346 247.8 205.846 247.8 206.346C247.7 206.946 248.2 207.346 248.8 207.346ZM248.8 222.546C249.4 222.546 249.8 222.046 249.8 221.546C249.8 220.946 249.3 220.546 248.8 220.546C248.2 220.546 247.8 221.046 247.8 221.546C247.7 222.046 248.2 222.546 248.8 222.546ZM253.3 237.746C253.9 237.746 254.3 237.246 254.3 236.746C254.3 236.146 253.8 235.746 253.3 235.746C252.7 235.746 252.3 236.246 252.3 236.746C252.3 237.246 252.7 237.746 253.3 237.746ZM253.3 252.846C253.9 252.846 254.3 252.346 254.3 251.846C254.3 251.246 253.8 250.846 253.3 250.846C252.7 250.846 252.3 251.346 252.3 251.846C252.3 252.446 252.7 252.846 253.3 252.846ZM253.3 268.046C253.9 268.046 254.3 267.546 254.3 267.046C254.3 266.446 253.8 266.046 253.3 266.046C252.7 266.046 252.3 266.546 252.3 267.046C252.3 267.546 252.7 268.046 253.3 268.046ZM253.3 283.246C253.9 283.246 254.3 282.746 254.3 282.246C254.3 281.646 253.8 281.246 253.3 281.246C252.7 281.246 252.3 281.746 252.3 282.246C252.3 282.746 252.7 283.246 253.3 283.246ZM244.2 161.846C244.8 161.846 245.2 161.346 245.2 160.846C245.2 160.246 244.7 159.846 244.2 159.846C243.6 159.846 243.2 160.346 243.2 160.846C243.2 161.446 243.6 161.846 244.2 161.846ZM244.2 177.046C244.8 177.046 245.2 176.546 245.2 176.046C245.2 175.446 244.7 175.046 244.2 175.046C243.6 175.046 243.2 175.546 243.2 176.046C243.2 176.546 243.6 177.046 244.2 177.046ZM244.2 192.246C244.8 192.246 245.2 191.746 245.2 191.246C245.2 190.646 244.7 190.246 244.2 190.246C243.6 190.246 243.2 190.746 243.2 191.246C243.2 191.746 243.6 192.246 244.2 192.246ZM253.3 207.346C253.9 207.346 254.3 206.846 254.3 206.346C254.3 205.746 253.8 205.346 253.3 205.346C252.7 205.346 252.3 205.846 252.3 206.346C252.3 206.946 252.7 207.346 253.3 207.346ZM253.3 222.546C253.9 222.546 254.3 222.046 254.3 221.546C254.3 220.946 253.8 220.546 253.3 220.546C252.7 220.546 252.3 221.046 252.3 221.546C252.3 222.046 252.7 222.546 253.3 222.546ZM248.8 237.746C249.4 237.746 249.8 237.246 249.8 236.746C249.8 236.146 249.3 235.746 248.8 235.746C248.2 235.746 247.8 236.246 247.8 236.746C247.7 237.246 248.2 237.746 248.8 237.746ZM248.8 252.846C249.4 252.846 249.8 252.346 249.8 251.846C249.8 251.246 249.3 250.846 248.8 250.846C248.2 250.846 247.8 251.346 247.8 251.846C247.7 252.446 248.2 252.846 248.8 252.846ZM244.2 268.046C244.8 268.046 245.2 267.546 245.2 267.046C245.2 266.446 244.7 266.046 244.2 266.046C243.6 266.046 243.2 266.546 243.2 267.046C243.2 267.546 243.6 268.046 244.2 268.046ZM244.2 283.246C244.8 283.246 245.2 282.746 245.2 282.246C245.2 281.646 244.7 281.246 244.2 281.246C243.6 281.246 243.2 281.746 243.2 282.246C243.2 282.746 243.6 283.246 244.2 283.246Z" fill="#007867"/>
<path d="M170.6 243.645L166.1 249.245C165.7 249.745 165.2 250.145 164.6 250.445C164 250.745 163.4 250.845 162.8 250.845H122.6C121.5 250.845 120.5 251.245 119.8 251.945C119 252.645 118.5 253.645 118.4 254.645L114.8 297.545C114.7 298.045 114.8 298.545 115 299.045C115.2 299.545 115.4 299.945 115.7 300.345C116 300.745 116.4 301.045 116.9 301.245C117.4 301.445 117.9 301.545 118.4 301.545H197.3C198.4 301.545 199.4 301.145 200.1 300.445C200.9 299.745 201.4 298.745 201.5 297.745L205.8 246.145C205.9 245.645 205.8 245.145 205.6 244.645C205.4 244.145 205.2 243.745 204.9 243.345C204.6 242.945 204.2 242.645 203.7 242.445C203.2 242.245 202.7 242.145 202.3 242.145H173.8C173.2 242.145 172.6 242.245 172 242.545C171.5 242.745 171 243.145 170.6 243.645Z" fill="#004B50"/>
<path d="M154.6 246.645L151 251.945C150.7 252.445 150.2 252.845 149.7 253.045C149.2 253.345 148.6 253.445 148 253.445H114.9C114.4 253.445 113.9 253.545 113.5 253.645C113.1 253.845 112.6 254.145 112.3 254.445C112 254.745 111.7 255.245 111.5 255.645C111.3 256.145 111.3 256.545 111.3 257.045L114.3 297.645C114.4 298.645 114.9 299.645 115.7 300.245C116.5 300.945 117.5 301.245 118.5 301.245H197.4C197.9 301.245 198.4 301.145 198.8 301.045C199.2 300.845 199.7 300.545 200 300.245C200.3 299.945 200.6 299.445 200.8 299.045C201 298.545 201 298.145 201 297.645L197.4 248.745C197.3 247.745 196.8 246.845 196 246.145C195.2 245.445 194.2 245.145 193.2 245.145H157.7C157.1 245.145 156.5 245.245 156 245.545C155.5 245.845 155 246.245 154.6 246.645Z" fill="url(#paint3_linear_1_36560)"/>
<defs>
<linearGradient id="paint0_linear_1_36560" x1="240" y1="360" x2="426.92" y2="25.2178" gradientUnits="userSpaceOnUse">
<stop/>
<stop offset="1" stop-opacity="0.01"/>
</linearGradient>
<linearGradient id="paint1_linear_1_36560" x1="179.716" y1="61.3939" x2="100.71" y2="249.435" gradientUnits="userSpaceOnUse">
<stop stop-color="#00A66F"/>
<stop offset="1" stop-color="#007867"/>
</linearGradient>
<linearGradient id="paint2_linear_1_36560" x1="209.454" y1="73.8886" x2="130.449" y2="261.93" gradientUnits="userSpaceOnUse">
<stop stop-color="#00A66F"/>
<stop offset="1" stop-color="#007867"/>
</linearGradient>
<linearGradient id="paint3_linear_1_36560" x1="168.021" y1="238.622" x2="145.633" y2="311.266" gradientUnits="userSpaceOnUse">
<stop stop-color="#00A66F"/>
<stop offset="1" stop-color="#007867"/>
</linearGradient>
</defs>
</svg>
