<svg width="480" height="360" viewBox="0 0 480 360" fill="none" xmlns="http://www.w3.org/2000/svg">
<g opacity="0.2">
<mask id="mask0_1_36557" style="mask-type:alpha" maskUnits="userSpaceOnUse" x="0" y="0" width="480" height="360">
<path opacity="0.48" fill-rule="evenodd" clip-rule="evenodd" d="M0 198.781C0 240.238 14.9454 278.016 39.539 306.566C67.7534 339.331 108.667 359.931 154.273 360C174.204 360.029 193.262 356.113 210.768 348.964C219.819 345.265 229.95 345.69 238.716 350.071C248.999 355.204 260.514 358.082 272.673 358.082C277.696 358.082 282.615 357.587 287.373 356.648C300.954 353.978 313.313 347.658 323.462 338.708C329.841 333.081 338.01 330.252 346.36 330.262H346.502C374.091 330.262 399.717 321.53 420.994 306.566C440.015 293.206 455.548 274.87 465.898 253.341C474.92 234.581 480 213.388 480 190.958C480 114.027 420.226 51.6534 346.502 51.6534C338.986 51.6534 331.622 52.3158 324.439 53.5518C305.418 21.4201 271.355 0 232.498 0C216.093 0 200.54 3.81769 186.619 10.6612C173.379 17.1483 161.608 26.3663 151.978 37.6C119.281 38.144 89.048 49.2899 64.303 67.8914C25.3514 97.1552 0 144.882 0 198.781Z" fill="url(#paint0_linear_1_36557)"/>
</mask>
<g mask="url(#mask0_1_36557)">
<rect width="480" height="360" fill="#00A76F"/>
</g>
</g>
<path opacity="0.24" fill-rule="evenodd" clip-rule="evenodd" d="M109.224 97.4082L110.036 99.2359L110.016 99.2446L109.955 99.2723C109.9 99.2971 109.817 99.3345 109.707 99.3844C109.488 99.4843 109.163 99.6342 108.739 99.8328L107.89 98.0219C108.32 97.8201 108.652 97.6674 108.878 97.5647C108.99 97.5134 109.076 97.4746 109.134 97.4484L109.2 97.4187L109.224 97.4082ZM102.453 100.687C103.45 100.18 104.354 99.7292 105.153 99.3369L106.035 101.132C105.244 101.521 104.348 101.967 103.36 102.47L102.453 100.687ZM97.0969 103.495C98.0274 102.993 98.9173 102.52 99.7617 102.077L100.691 103.848C99.8532 104.288 98.9704 104.757 98.0471 105.255L97.0969 103.495ZM91.8233 106.423C92.7244 105.909 93.6019 105.415 94.4531 104.943L95.4237 106.692C94.5791 107.16 93.7082 107.65 92.814 108.16L91.8233 106.423ZM86.5912 109.487C87.4775 108.954 88.3488 108.437 89.2031 107.937L90.2138 109.663C89.3661 110.159 88.5014 110.672 87.622 111.201L86.5912 109.487ZM81.4736 112.648C82.3351 112.101 83.1874 111.568 84.0287 111.049L85.0795 112.75C84.2448 113.266 83.3993 113.794 82.5447 114.336L81.4736 112.648ZM76.4086 115.949C77.2529 115.383 78.0918 114.829 78.9239 114.287L80.0159 115.962C79.1907 116.5 78.3588 117.049 77.5216 117.61L76.4086 115.949ZM71.4306 119.379C72.2616 118.79 73.0901 118.211 73.9148 117.643L75.0495 119.29C74.232 119.853 73.411 120.426 72.5876 121.01L71.4306 119.379ZM66.5583 122.939C67.3676 122.329 68.1769 121.729 68.9851 121.139L70.1648 122.754C69.3643 123.339 68.5628 123.933 67.7615 124.537L66.5583 122.939ZM61.787 126.649C62.5739 126.017 63.3631 125.393 64.1533 124.779L65.3808 126.358C64.5987 126.966 63.8179 127.583 63.0395 128.208L61.787 126.649ZM57.1357 130.516C57.9009 129.857 58.6703 129.206 59.443 128.564L60.7215 130.102C59.9576 130.737 59.197 131.38 58.441 132.032L57.1357 130.516ZM52.6251 134.551C53.3647 133.863 54.1107 133.183 54.8619 132.512L56.195 134.002C55.4532 134.666 54.7169 135.337 53.9871 136.016L52.6251 134.551ZM48.2786 138.766C48.9877 138.048 49.7053 137.337 50.4301 136.635L51.8221 138.071C51.1074 138.763 50.4003 139.464 49.7017 140.171L48.2786 138.766ZM44.1223 143.177C44.7963 142.426 45.4809 141.682 46.1748 140.946L47.6302 142.318C46.9472 143.042 46.2739 143.774 45.6112 144.513L44.1223 143.177ZM40.1932 147.8C40.826 147.012 41.4716 146.232 42.129 145.459L43.6525 146.754C43.0069 147.514 42.3732 148.28 41.7525 149.052L40.1932 147.8ZM36.5365 152.648C37.119 151.822 37.7169 151.004 38.3289 150.193L39.9252 151.398C39.3256 152.192 38.7404 152.993 38.1706 153.801L36.5365 152.648ZM33.2076 157.732C33.7293 156.869 34.2689 156.012 34.8254 155.163L36.4983 156.259C35.9549 157.088 35.4283 157.924 34.9197 158.766L33.2076 157.732ZM30.2678 163.073C30.7186 162.166 31.1903 161.267 31.6818 160.375L33.4335 161.34C32.9551 162.208 32.4965 163.083 32.0587 163.963L30.2678 163.073ZM27.8028 168.656C28.1685 167.708 28.5585 166.767 28.9715 165.833L30.8007 166.642C30.4004 167.547 30.0227 168.459 29.6688 169.376L27.8028 168.656ZM25.9002 174.464C26.1653 173.48 26.4578 172.502 26.7763 171.532L28.6766 172.156C28.3691 173.093 28.0869 174.036 27.8314 174.984L25.9002 174.464ZM24.6472 180.457C24.7976 179.445 24.9782 178.44 25.1875 177.44L27.145 177.851C26.9436 178.812 26.77 179.779 26.6255 180.751L24.6472 180.457ZM24.1795 185.034C24.2081 184.521 24.2446 184.01 24.2889 183.5L26.2814 183.673C26.2389 184.162 26.2039 184.653 26.1765 185.145C26.1489 185.642 26.1369 186.131 26.1402 186.614L24.1402 186.628C24.1366 186.102 24.1497 185.571 24.1795 185.034ZM25.002 192.783C24.719 191.785 24.5038 190.76 24.3592 189.709L26.3406 189.437C26.4725 190.396 26.6686 191.329 26.9262 192.238L25.002 192.783ZM27.5003 198.482C26.9564 197.585 26.4738 196.662 26.056 195.712L27.8869 194.907C28.2683 195.774 28.7101 196.62 29.2104 197.445L27.5003 198.482ZM31.2768 203.352C30.5546 202.599 29.8808 201.823 29.2583 201.025L30.8355 199.795C31.4138 200.537 32.0426 201.261 32.7205 201.968L31.2768 203.352ZM35.879 207.4C35.059 206.783 34.2753 206.149 33.5301 205.498L34.8459 203.992C35.5522 204.609 36.2978 205.212 37.0813 205.801L35.879 207.4ZM40.9685 210.761C40.0795 210.242 39.2191 209.709 38.389 209.163L39.4881 207.492C40.2867 208.018 41.1168 208.531 41.9771 209.034L40.9685 210.761ZM46.3403 213.584C45.4117 213.143 44.5059 212.692 43.6241 212.229L44.5527 210.458C45.4099 210.907 46.2922 211.347 47.1983 211.777L46.3403 213.584ZM51.8817 215.992C50.9318 215.614 50.0001 215.226 49.0876 214.831L49.8835 212.996C50.7768 213.383 51.6901 213.763 52.6224 214.134L51.8817 215.992ZM346.739 213.398C346.983 213.499 347.337 213.651 347.787 213.856L346.959 215.676C346.53 215.481 346.196 215.338 345.971 215.245C345.859 215.198 345.774 215.164 345.718 215.142L345.657 215.118L345.643 215.112L345.64 215.111C345.641 215.111 345.64 215.111 345.997 214.177C346.353 213.243 346.353 213.243 346.353 213.243L346.354 213.243L346.356 213.244L346.362 213.246L346.383 213.254C346.4 213.261 346.426 213.271 346.458 213.284C346.523 213.309 346.617 213.348 346.739 213.398ZM57.5332 218.078C56.5727 217.75 55.6268 217.414 54.6964 217.071L55.388 215.194C56.3032 215.532 57.2345 215.862 58.181 216.186L57.5332 218.078ZM350.548 215.213C351.355 215.638 352.256 216.136 353.23 216.71L352.214 218.433C351.269 217.876 350.396 217.394 349.616 216.983L350.548 215.213ZM63.2622 219.911C62.2971 219.622 61.3439 219.328 60.4033 219.027L61.0117 217.122C61.9401 217.419 62.8816 217.709 63.8355 217.995L63.2622 219.911ZM355.827 218.321C356.639 218.851 357.483 219.425 358.349 220.046L357.184 221.671C356.343 221.068 355.524 220.511 354.735 219.997L355.827 218.321ZM69.0497 221.54C68.0832 221.284 67.1263 221.023 66.1797 220.757L66.7208 218.831C67.6575 219.095 68.6049 219.353 69.5623 219.607L69.0497 221.54ZM74.8826 223.004C73.9061 222.771 72.9376 222.535 71.9777 222.295L72.4639 220.355C73.4156 220.593 74.3762 220.828 75.3451 221.058L74.8826 223.004ZM80.7501 224.33C79.7618 224.118 78.7801 223.901 77.8057 223.681L78.2465 221.73C79.2141 221.949 80.1891 222.164 81.171 222.375L80.7501 224.33ZM360.807 221.891C361.584 222.502 362.371 223.148 363.163 223.831L361.857 225.346C361.088 224.683 360.325 224.056 359.571 223.463L360.807 221.891ZM86.6228 225.539C85.6326 225.344 84.6478 225.146 83.6688 224.944L84.0718 222.985C85.045 223.186 86.0243 223.383 87.0092 223.577L86.6228 225.539ZM92.5037 226.651C91.5178 226.472 90.536 226.29 89.559 226.105L89.9304 224.14C90.9027 224.324 91.8798 224.505 92.8613 224.683L92.5037 226.651ZM98.4075 227.686C97.4242 227.519 96.444 227.351 95.4673 227.18L95.8124 225.21C96.7851 225.38 97.7616 225.548 98.7413 225.714L98.4075 227.686ZM365.438 225.885C366.167 226.574 366.895 227.295 367.619 228.047L366.177 229.434C365.476 228.704 364.77 228.006 364.064 227.338L365.438 225.885ZM104.326 228.656C103.337 228.499 102.35 228.34 101.367 228.179L101.69 226.205C102.671 226.366 103.654 226.524 104.64 226.681L104.326 228.656ZM110.245 229.572C109.255 229.423 108.267 229.272 107.28 229.119L107.586 227.143C108.57 227.295 109.555 227.445 110.543 227.594L110.245 229.572ZM116.165 230.445C115.178 230.302 114.19 230.158 113.204 230.013L113.496 228.034C114.48 228.179 115.465 228.323 116.451 228.465L116.165 230.445ZM122.094 231.286C121.106 231.148 120.118 231.009 119.129 230.869L119.41 228.888C120.397 229.028 121.384 229.167 122.37 229.305L122.094 231.286ZM128.021 232.103C127.034 231.968 126.045 231.833 125.056 231.696L125.329 229.715C126.317 229.851 127.305 229.987 128.291 230.121L128.021 232.103ZM369.685 230.303C370.346 231.061 370.999 231.847 371.642 232.662L370.071 233.9C369.45 233.112 368.818 232.351 368.178 231.618L369.685 230.303ZM133.945 232.906C132.962 232.773 131.976 232.64 130.988 232.506L131.257 230.524C132.244 230.658 133.229 230.791 134.213 230.924L133.945 232.906ZM139.88 233.707C138.895 233.574 137.907 233.44 136.916 233.307L137.183 231.325C138.174 231.458 139.162 231.592 140.148 231.725L139.88 233.707ZM145.808 234.512C144.82 234.377 143.827 234.242 142.831 234.106L143.1 232.125C144.097 232.26 145.091 232.395 146.08 232.531L145.808 234.512ZM151.723 235.333C150.741 235.195 149.753 235.057 148.761 234.919L149.036 232.938C150.029 233.076 151.018 233.214 152.002 233.353L151.723 235.333ZM157.619 236.181C156.648 236.038 155.671 235.896 154.689 235.755L154.973 233.776C155.958 233.917 156.937 234.059 157.91 234.202L157.619 236.181ZM163.541 237.076C162.569 236.925 161.589 236.774 160.601 236.625L160.9 234.648C161.89 234.797 162.873 234.948 163.849 235.1L163.541 237.076ZM373.479 235.119C374.062 235.943 374.633 236.793 375.188 237.67L373.498 238.739C372.962 237.892 372.411 237.071 371.847 236.276L373.479 235.119ZM169.445 238.031C168.471 237.867 167.487 237.705 166.493 237.544L166.812 235.57C167.81 235.731 168.798 235.894 169.777 236.058L169.445 238.031ZM175.326 239.065C174.35 238.885 173.361 238.707 172.361 238.531L172.707 236.562C173.713 236.738 174.707 236.917 175.689 237.098L175.326 239.065ZM181.176 240.208C180.204 240.007 179.217 239.809 178.215 239.613L178.598 237.65C179.607 237.847 180.602 238.047 181.582 238.25L181.176 240.208ZM186.986 241.5C186.028 241.271 185.051 241.046 184.054 240.825L184.487 238.872C185.493 239.095 186.482 239.323 187.451 239.554L186.986 241.5ZM192.736 242.996C191.794 242.728 190.827 242.465 189.835 242.208L190.337 240.272C191.343 240.533 192.325 240.8 193.284 241.072L192.736 242.996ZM376.762 240.307C377.256 241.188 377.734 242.094 378.193 243.025L376.399 243.909C375.957 243.011 375.495 242.137 375.018 241.286L376.762 240.307ZM198.375 244.784C197.457 244.458 196.504 244.139 195.517 243.828L196.119 241.921C197.126 242.239 198.102 242.565 199.045 242.9L198.375 244.784ZM203.777 246.998C202.937 246.597 202.048 246.206 201.112 245.824L201.867 243.972C202.835 244.367 203.761 244.774 204.64 245.194L203.777 246.998ZM379.477 245.815C379.874 246.743 380.252 247.695 380.609 248.669L378.731 249.357C378.386 248.416 378.022 247.498 377.638 246.602L379.477 245.815ZM207.559 249.097C207.182 248.851 206.789 248.609 206.379 248.369L207.387 246.642C207.825 246.897 208.247 247.157 208.653 247.423C209.039 247.675 209.441 247.93 209.859 248.186L208.814 249.891C208.381 249.625 207.962 249.361 207.559 249.097ZM214.233 252.892C213.288 252.413 212.383 251.936 211.523 251.462L212.487 249.71C213.326 250.172 214.21 250.638 215.137 251.108L214.233 252.892ZM381.587 251.578C381.882 252.542 382.157 253.527 382.409 254.533L380.469 255.019C380.226 254.047 379.96 253.096 379.675 252.165L381.587 251.578ZM219.821 255.542C218.843 255.106 217.895 254.671 216.979 254.237L217.835 252.429C218.737 252.856 219.671 253.285 220.636 253.716L219.821 255.542ZM225.445 257.931C224.468 257.535 223.513 257.139 222.581 256.743L223.362 254.902C224.284 255.293 225.229 255.685 226.196 256.077L225.445 257.931ZM231.147 260.15C230.168 259.784 229.205 259.416 228.26 259.049L228.986 257.185C229.922 257.549 230.877 257.913 231.849 258.277L231.147 260.15ZM383.078 257.524C383.273 258.511 383.445 259.517 383.595 260.542L381.616 260.831C381.471 259.838 381.304 258.865 381.116 257.91L383.078 257.524ZM236.905 262.232C235.92 261.888 234.949 261.543 233.992 261.197L234.672 259.316C235.622 259.659 236.587 260.002 237.565 260.344L236.905 262.232ZM242.698 264.193C241.709 263.868 240.732 263.543 239.766 263.216L240.408 261.321C241.367 261.646 242.339 261.97 243.321 262.292L242.698 264.193ZM248.506 266.044C247.521 265.739 246.544 265.432 245.578 265.124L246.185 263.219C247.146 263.525 248.117 263.83 249.097 264.134L248.506 266.044ZM383.964 263.582C384.013 264.091 384.057 264.605 384.095 265.124C384.137 265.697 384.148 266.258 384.127 266.806L382.129 266.731C382.146 266.26 382.137 265.773 382.1 265.27C382.064 264.767 382.021 264.269 381.973 263.775L383.964 263.582ZM254.348 267.804C253.366 267.516 252.39 267.226 251.422 266.935L251.999 265.02C252.962 265.31 253.933 265.598 254.91 265.884L254.348 267.804ZM260.223 269.478C259.241 269.206 258.266 268.932 257.296 268.655L257.844 266.732C258.809 267.007 259.78 267.28 260.757 267.551L260.223 269.478ZM266.125 271.071C265.14 270.812 264.159 270.551 263.182 270.288L263.703 268.357C264.675 268.619 265.652 268.879 266.633 269.136L266.125 271.071ZM383.606 270.033C383.287 271.101 382.829 272.099 382.241 273.029L380.55 271.96C381.043 271.182 381.424 270.35 381.689 269.461L383.606 270.033ZM272.05 272.583C271.057 272.337 270.068 272.088 269.082 271.836L269.577 269.898C270.558 270.149 271.543 270.397 272.532 270.642L272.05 272.583ZM277.987 274.015C276.992 273.782 276 273.546 275.01 273.307L275.479 271.363C276.464 271.601 277.452 271.835 278.443 272.067L277.987 274.015ZM283.941 275.367C282.946 275.148 281.953 274.926 280.961 274.7L281.404 272.75C282.391 272.974 283.38 273.195 284.371 273.413L283.941 275.367ZM289.917 276.639C288.92 276.434 287.924 276.225 286.928 276.013L287.344 274.057C288.336 274.268 289.328 274.476 290.32 274.68L289.917 276.639ZM380.161 275.552C379.406 276.275 378.556 276.94 377.621 277.548L376.53 275.872C377.372 275.324 378.122 274.736 378.777 274.108L380.161 275.552ZM295.911 277.829C294.911 277.638 293.91 277.443 292.909 277.244L293.299 275.282C294.295 275.48 295.291 275.674 296.286 275.864L295.911 277.829ZM301.914 278.931C300.915 278.755 299.915 278.575 298.913 278.391L299.274 276.424C300.271 276.607 301.267 276.786 302.261 276.961L301.914 278.931ZM374.814 279.098C373.903 279.525 372.936 279.917 371.917 280.276L371.254 278.389C372.216 278.05 373.12 277.683 373.964 277.287L374.814 279.098ZM307.942 279.942C306.942 279.782 305.939 279.618 304.935 279.449L305.265 277.477C306.265 277.645 307.262 277.808 308.257 277.967L307.942 279.942ZM313.993 280.855C312.988 280.712 311.98 280.564 310.968 280.412L311.267 278.434C312.273 278.586 313.276 278.733 314.274 278.875L313.993 280.855ZM368.955 281.187C367.976 281.45 366.959 281.688 365.905 281.903L365.505 279.943C366.523 279.735 367.5 279.506 368.437 279.255L368.955 281.187ZM320.059 281.66C319.047 281.535 318.031 281.405 317.01 281.27L317.273 279.287C318.288 279.422 319.298 279.551 320.303 279.674L320.059 281.66ZM326.135 282.343C325.122 282.24 324.103 282.131 323.077 282.015L323.301 280.028C324.32 280.143 325.332 280.251 326.338 280.353L326.135 282.343ZM362.864 282.444C361.875 282.596 360.859 282.731 359.817 282.85L359.591 280.863C360.608 280.747 361.598 280.615 362.559 280.467L362.864 282.444ZM332.222 282.89C331.214 282.812 330.198 282.727 329.174 282.635L329.354 280.643C330.369 280.734 331.377 280.819 332.377 280.896L332.222 282.89ZM338.321 283.28C337.319 283.231 336.306 283.173 335.285 283.108L335.413 281.112C336.425 281.177 337.428 281.234 338.42 281.283L338.321 283.28ZM356.714 283.147C355.723 283.226 354.712 283.291 353.682 283.343L353.581 281.346C354.593 281.294 355.585 281.23 356.556 281.154L356.714 283.147ZM344.435 283.484C343.438 283.468 342.428 283.443 341.407 283.409L341.474 281.41C342.484 281.444 343.482 281.469 344.467 281.485L344.435 283.484ZM350.566 283.461C349.573 283.486 348.564 283.5 347.541 283.504L347.534 281.504C348.543 281.501 349.537 281.486 350.515 281.462L350.566 283.461Z" fill="#007867"/>
<path d="M47.9434 122.57L96.2314 273.549C97.0306 275.986 98.629 278.083 100.768 279.5C102.907 280.916 105.461 281.569 108.017 281.354L171.343 275.994L319.356 263.35C320.844 263.235 322.294 262.827 323.624 262.149C324.953 261.472 326.136 260.538 327.103 259.401C328.07 258.265 328.803 256.948 329.26 255.527C329.716 254.106 329.887 252.609 329.763 251.122C329.657 250.054 329.412 249.004 329.034 248L317.196 216.779L295.784 159.541L279.185 115.311C278.37 113.148 276.915 111.284 275.014 109.969C273.113 108.653 270.856 107.949 268.544 107.949H58.7405C57.2509 107.949 55.7758 108.242 54.3995 108.812C53.0233 109.382 51.7728 110.218 50.7194 111.271C49.6661 112.324 48.8305 113.575 48.2605 114.951C47.6904 116.327 47.397 117.802 47.397 119.292C47.4125 120.406 47.5967 121.511 47.9434 122.57Z" fill="white"/>
<path d="M47.9434 122.57L96.2314 273.549C97.0306 275.986 98.629 278.083 100.768 279.5C102.907 280.916 105.461 281.569 108.017 281.354L171.343 275.994L319.356 263.35C320.844 263.235 322.294 262.827 323.624 262.149C324.953 261.472 326.136 260.538 327.103 259.401C328.07 258.265 328.803 256.948 329.26 255.527C329.716 254.106 329.887 252.609 329.763 251.122C329.657 250.054 329.412 249.004 329.034 248L317.196 216.779L295.784 159.541L279.185 115.311C278.37 113.148 276.915 111.284 275.014 109.969C273.113 108.653 270.856 107.949 268.544 107.949H58.7405C57.2509 107.949 55.7758 108.242 54.3995 108.812C53.0233 109.382 51.7728 110.218 50.7194 111.271C49.6661 112.324 48.8305 113.575 48.2605 114.951C47.6904 116.327 47.397 117.802 47.397 119.292C47.4125 120.406 47.5967 121.511 47.9434 122.57Z" fill="white"/>
<path d="M170.575 276.059L108.017 281.354C105.461 281.569 102.907 280.916 100.768 279.5C98.629 278.083 97.0306 275.986 96.2315 273.549L47.9434 122.57C47.5967 121.511 47.4125 120.406 47.397 119.292C47.397 117.802 47.6904 116.327 48.2605 114.951C48.8305 113.575 49.6661 112.324 50.7195 111.271C51.7728 110.218 53.0233 109.382 54.3995 108.812C55.7758 108.242 57.2509 107.949 58.7405 107.949H116.193L170.575 276.059Z" fill="url(#paint1_linear_1_36557)"/>
<path d="M227.879 191.221C230.492 191.059 232.247 188.472 231.432 185.984L222.949 160.089C222.388 158.379 220.754 157.253 218.956 157.339L157.335 160.3C154.669 160.428 152.874 163.082 153.747 165.604L162.995 192.321C163.582 194.018 165.23 195.116 167.023 195.004L227.879 191.221Z" fill="#F4F6F8"/>
<path d="M244.879 239.221C247.492 239.059 249.247 236.472 248.432 233.984L239.949 208.089C239.388 206.379 237.754 205.253 235.956 205.339L174.335 208.3C171.669 208.428 169.874 211.082 170.747 213.604L179.995 240.321C180.582 242.018 182.23 243.116 184.023 243.004L244.879 239.221Z" fill="#C4CDD5"/>
<g opacity="0.4" filter="url(#filter0_f_1_36557)">
<path d="M253.012 134.539L268.96 187.432C269.195 188.284 269.706 189.034 270.412 189.566C271.117 190.098 271.979 190.381 272.863 190.372L312.422 189.23C313.794 189.191 314.719 187.814 314.238 186.53L294.237 133.13C293.96 132.389 293.271 131.882 292.482 131.835L256.576 129.726C255.986 129.701 255.398 129.821 254.865 130.076C254.331 130.331 253.869 130.712 253.517 131.187C253.165 131.662 252.935 132.216 252.847 132.8C252.759 133.385 252.816 133.982 253.012 134.539Z" fill="#919EAB"/>
<path d="M253.487 134.384L253.491 134.395L269.439 187.288L269.442 187.299L269.442 187.299C269.647 188.044 270.095 188.701 270.713 189.167L270.713 189.167C271.328 189.631 272.081 189.879 272.853 189.873L312.407 188.73L312.408 188.73C313.437 188.701 314.13 187.668 313.77 186.705L314.238 186.53L313.77 186.705L293.769 133.305L293.769 133.305C293.561 132.75 293.045 132.369 292.452 132.334C292.452 132.334 292.452 132.334 292.452 132.334L256.551 130.225C256.044 130.204 255.538 130.308 255.081 130.527L255.08 130.527C254.62 130.747 254.222 131.075 253.919 131.485C253.615 131.894 253.417 132.371 253.341 132.874L253.487 134.384ZM253.487 134.384L253.484 134.373M253.487 134.384L253.484 134.373M253.484 134.373C253.315 133.893 253.265 133.378 253.341 132.874L253.484 134.373Z" stroke="#919EAB"/>
</g>
<path d="M330.082 174.423L313.587 127.722C313.334 126.972 312.866 126.313 312.242 125.828C311.617 125.342 310.864 125.051 310.075 124.99L240.557 120.879C239.965 120.861 239.377 120.986 238.844 121.244C238.311 121.502 237.849 121.885 237.496 122.36C237.143 122.836 236.911 123.389 236.819 123.974C236.726 124.559 236.777 125.157 236.966 125.718L252.915 178.638C253.153 179.49 253.663 180.241 254.368 180.776C255.072 181.312 255.932 181.602 256.817 181.604L326.908 179.496C327.493 179.462 328.061 179.289 328.565 178.99C329.07 178.691 329.495 178.276 329.806 177.78C330.117 177.283 330.304 176.719 330.352 176.135C330.4 175.551 330.307 174.964 330.082 174.423Z" fill="white"/>
<path d="M295.375 166.976C295.853 168.213 296.093 168.832 296.604 169.182C297.115 169.533 297.778 169.533 299.105 169.533H299.425C302.073 169.533 303.397 169.533 303.993 168.663C304.589 167.794 304.111 166.559 303.156 164.089L296.729 147.477C296.25 146.239 296.01 145.621 295.499 145.27C294.988 144.92 294.325 144.92 292.998 144.92H292.678C290.03 144.92 288.706 144.92 288.11 145.79C287.514 146.659 287.992 147.894 288.947 150.363L295.375 166.976Z" fill="#007867"/>
<g opacity="0.48">
<path d="M306.33 166.968C306.808 168.209 307.047 168.829 307.558 169.18C308.07 169.531 308.734 169.531 310.063 169.531H310.377C313.026 169.531 314.35 169.531 314.946 168.662C315.542 167.792 315.064 166.557 314.107 164.088L312.521 159.989C312.042 158.752 311.803 158.134 311.292 157.784C310.781 157.433 310.117 157.433 308.791 157.433H308.486C305.842 157.433 304.52 157.433 303.924 158.301C303.328 159.169 303.803 160.403 304.753 162.87L306.33 166.968Z" fill="url(#paint2_linear_1_36557)"/>
<path d="M284.397 166.97C284.875 168.21 285.114 168.83 285.625 169.181C286.137 169.532 286.801 169.532 288.13 169.532H288.445C291.093 169.532 292.418 169.532 293.013 168.662C293.609 167.792 293.131 166.557 292.175 164.087L289.47 157.101C288.991 155.864 288.752 155.246 288.241 154.896C287.73 154.546 287.066 154.546 285.74 154.546H285.437C282.792 154.546 281.47 154.546 280.874 155.414C280.278 156.282 280.754 157.516 281.705 159.984L284.397 166.97Z" fill="url(#paint3_linear_1_36557)"/>
<path d="M273.442 166.976C273.921 168.213 274.16 168.832 274.671 169.182C275.182 169.533 275.846 169.533 277.173 169.533H277.493C280.141 169.533 281.465 169.532 282.061 168.662C282.657 167.793 282.179 166.559 281.223 164.089L271.778 139.672C271.299 138.434 271.06 137.816 270.549 137.465C270.038 137.115 269.374 137.115 268.047 137.115H267.727C265.079 137.115 263.755 137.115 263.159 137.984C262.563 138.854 263.041 140.088 263.996 142.558L273.442 166.976Z" fill="url(#paint4_linear_1_36557)"/>
<path d="M262.463 166.974C262.942 168.213 263.181 168.832 263.692 169.182C264.203 169.533 264.867 169.533 266.194 169.533H266.516C269.163 169.533 270.486 169.533 271.082 168.664C271.678 167.795 271.201 166.56 270.247 164.091L257.312 130.619C256.833 129.381 256.594 128.762 256.083 128.412C255.572 128.061 254.908 128.061 253.581 128.061H253.259C250.612 128.061 249.289 128.061 248.693 128.93C248.097 129.799 248.574 131.034 249.528 133.503L262.463 166.974Z" fill="url(#paint5_linear_1_36557)"/>
</g>
<g opacity="0.4">
<path fill-rule="evenodd" clip-rule="evenodd" d="M78.0195 155.171C76.9796 151.318 77.4945 147.211 79.4533 143.734C81.4121 140.257 84.6581 137.689 88.4922 136.582C92.3263 135.475 96.4417 135.918 99.9521 137.816C103.463 139.714 106.087 142.915 107.261 146.729C108.434 150.543 108.063 154.666 106.227 158.209C104.39 161.752 101.236 164.432 97.4429 165.672C93.6497 166.912 89.5214 166.612 85.9468 164.838C82.3723 163.064 79.6376 159.957 78.3317 156.186L78.1756 155.691L78.0195 155.171ZM93.2136 150.982L89.6233 139.457C90.637 139.144 91.6859 138.961 92.7453 138.91C95.3948 138.811 98.0037 139.584 100.171 141.112C102.338 142.64 103.943 144.837 104.739 147.366C105.051 148.38 105.235 149.428 105.285 150.488C105.318 151.545 105.222 152.602 104.999 153.636C104.54 155.702 103.533 157.607 102.085 159.152C100.658 160.722 98.8373 161.883 96.811 162.514C94.7847 163.146 92.6267 163.224 90.5599 162.742C89.5413 162.504 88.5544 162.146 87.6199 161.675C86.6804 161.179 85.8065 160.567 85.0182 159.854C83.4819 158.432 82.3354 156.641 81.688 154.651L93.2136 150.982Z" fill="white"/>
<path fill-rule="evenodd" clip-rule="evenodd" d="M111.296 251.773C110.513 247.996 111.185 244.062 113.179 240.76C115.173 237.458 118.341 235.031 122.048 233.965C125.756 232.899 129.729 233.273 133.172 235.012C136.615 236.751 139.275 239.727 140.617 243.344V243.838C140.617 243.994 140.617 244.176 140.799 244.332C141.829 248.037 141.424 251.995 139.664 255.414C137.904 258.833 134.918 261.462 131.304 262.776C127.69 264.09 123.714 263.993 120.168 262.503C116.623 261.013 113.77 258.24 112.18 254.739C112.102 254.492 112.031 254.244 111.959 253.997C111.888 253.75 111.816 253.502 111.738 253.256C111.676 253.058 111.621 252.86 111.567 252.661C111.486 252.365 111.405 252.069 111.296 251.773ZM122.483 237.073L126.229 248.547L126.308 248.521L130.054 260.021C131.546 259.523 132.925 258.736 134.112 257.705C135.3 256.673 136.273 255.418 136.975 254.011C137.452 253.073 137.802 252.075 138.015 251.045C138.245 250.021 138.332 248.97 138.275 247.923C138.139 245.267 137.128 242.73 135.402 240.707C133.675 238.684 131.329 237.288 128.727 236.735C126.651 236.313 124.501 236.43 122.483 237.073Z" fill="white"/>
<path fill-rule="evenodd" clip-rule="evenodd" d="M100.21 187.509C97.3463 190.373 95.7373 194.257 95.7373 198.308V199.374C95.7373 203.425 97.3463 207.309 100.21 210.173C103.074 213.038 106.959 214.647 111.009 214.647C115.06 214.647 118.944 213.038 121.808 210.173C124.672 207.309 126.281 203.425 126.281 199.374V198.308C126.281 194.257 124.672 190.373 121.808 187.509C118.944 184.645 115.06 183.036 111.009 183.036C106.959 183.036 103.074 184.645 100.21 187.509ZM110.801 198.802V186.73C112.913 186.746 114.984 187.311 116.811 188.369C117.766 188.883 118.642 189.532 119.413 190.294C120.918 191.788 122.001 193.654 122.553 195.702C123.104 197.75 123.103 199.908 122.551 201.956C121.999 204.003 120.915 205.869 119.408 207.362C117.902 208.855 116.028 209.923 113.975 210.458C111.933 211.03 109.773 211.03 107.731 210.458C106.713 210.195 105.734 209.801 104.817 209.287L110.801 198.802Z" fill="white"/>
</g>
<path d="M151.154 76H109.604L122.249 83.7271L151.154 76Z" fill="url(#paint6_linear_1_36557)"/>
<path d="M151.154 76L124.486 88.3322L128.987 104.047L151.154 76Z" fill="url(#paint7_linear_1_36557)"/>
<path d="M117.435 95.2788L124.486 88.3322L151.154 76L117.435 95.2788Z" fill="url(#paint8_linear_1_36557)"/>
<path d="M117.435 95.2788L124.486 88.3322L151.154 76L122.249 83.7271L117.435 95.2788Z" fill="#007867"/>
<defs>
<filter id="filter0_f_1_36557" x="232.807" y="109.723" width="101.56" height="100.65" filterUnits="userSpaceOnUse" color-interpolation-filters="sRGB">
<feFlood flood-opacity="0" result="BackgroundImageFix"/>
<feBlend mode="normal" in="SourceGraphic" in2="BackgroundImageFix" result="shape"/>
<feGaussianBlur stdDeviation="10" result="effect1_foregroundBlur_1_36557"/>
</filter>
<linearGradient id="paint0_linear_1_36557" x1="240" y1="360" x2="426.92" y2="25.2178" gradientUnits="userSpaceOnUse">
<stop/>
<stop offset="1" stop-opacity="0.01"/>
</linearGradient>
<linearGradient id="paint1_linear_1_36557" x1="47.397" y1="107.949" x2="47.397" y2="281.394" gradientUnits="userSpaceOnUse">
<stop stop-color="#5BE49B"/>
<stop offset="1" stop-color="#007867"/>
</linearGradient>
<linearGradient id="paint2_linear_1_36557" x1="248.43" y1="128.061" x2="285.604" y2="187.918" gradientUnits="userSpaceOnUse">
<stop stop-color="#00A76F"/>
<stop offset="1" stop-color="#007867"/>
</linearGradient>
<linearGradient id="paint3_linear_1_36557" x1="248.43" y1="128.061" x2="285.604" y2="187.918" gradientUnits="userSpaceOnUse">
<stop stop-color="#00A76F"/>
<stop offset="1" stop-color="#007867"/>
</linearGradient>
<linearGradient id="paint4_linear_1_36557" x1="248.43" y1="128.061" x2="285.604" y2="187.918" gradientUnits="userSpaceOnUse">
<stop stop-color="#00A76F"/>
<stop offset="1" stop-color="#007867"/>
</linearGradient>
<linearGradient id="paint5_linear_1_36557" x1="248.43" y1="128.061" x2="285.604" y2="187.918" gradientUnits="userSpaceOnUse">
<stop stop-color="#00A76F"/>
<stop offset="1" stop-color="#007867"/>
</linearGradient>
<linearGradient id="paint6_linear_1_36557" x1="109.604" y1="76" x2="109.604" y2="104.047" gradientUnits="userSpaceOnUse">
<stop stop-color="#5BE39A"/>
<stop offset="1" stop-color="#007867"/>
</linearGradient>
<linearGradient id="paint7_linear_1_36557" x1="109.604" y1="76" x2="109.604" y2="104.047" gradientUnits="userSpaceOnUse">
<stop stop-color="#5BE39A"/>
<stop offset="1" stop-color="#007867"/>
</linearGradient>
<linearGradient id="paint8_linear_1_36557" x1="109.604" y1="76" x2="109.604" y2="104.047" gradientUnits="userSpaceOnUse">
<stop stop-color="#5BE39A"/>
<stop offset="1" stop-color="#007867"/>
</linearGradient>
</defs>
</svg>
