<svg width="480" height="360" viewBox="0 0 480 360" fill="none" xmlns="http://www.w3.org/2000/svg">
<g opacity="0.2">
<mask id="mask0_1_36564" style="mask-type:alpha" maskUnits="userSpaceOnUse" x="0" y="0" width="480" height="360">
<path opacity="0.48" fill-rule="evenodd" clip-rule="evenodd" d="M0 198.781C0 240.238 14.9454 278.016 39.539 306.566C67.7534 339.331 108.667 359.931 154.273 360C174.204 360.029 193.262 356.113 210.768 348.964C219.819 345.265 229.95 345.69 238.716 350.071C248.999 355.204 260.514 358.082 272.673 358.082C277.696 358.082 282.615 357.587 287.373 356.648C300.954 353.978 313.313 347.658 323.462 338.708C329.841 333.081 338.01 330.252 346.36 330.262H346.502C374.091 330.262 399.717 321.53 420.994 306.566C440.015 293.206 455.548 274.87 465.898 253.341C474.92 234.581 480 213.388 480 190.958C480 114.027 420.226 51.6534 346.502 51.6534C338.986 51.6534 331.622 52.3158 324.439 53.5518C305.418 21.4201 271.355 0 232.498 0C216.093 0 200.54 3.81769 186.619 10.6612C173.379 17.1483 161.608 26.3663 151.978 37.6C119.281 38.144 89.048 49.2899 64.303 67.8914C25.3514 97.1552 0 144.882 0 198.781Z" fill="url(#paint0_linear_1_36564)"/>
</mask>
<g mask="url(#mask0_1_36564)">
<rect width="480" height="360" fill="#00A76F"/>
</g>
</g>
<path d="M292.4 266.4H285.1V265.8H291.8V206.2H266.1V118H242.5V117.4H266.7V205.6H292.4V266.4ZM146 164.5H145.4V143.4H161.9V124.4H162.5V144.1H146V164.5Z" fill="#00A76F"/>
<path opacity="0.08" d="M242.5 112.3C242.5 115.5 241.2 118.6 239 120.8C236.7 123.1 233.7 124.3 230.5 124.3H147.6C143.2 124.4 139.1 122.1 136.9 118.4C134.7 114.6 134.7 109.9 136.9 106.1C139.1 102.3 143.2 100 147.6 100.2H150.4C148.4 93 149.8 85.3 154.3 79.4C158.8 73.5 165.9 70 173.3 70H180.3C189.2 70 197.3 74.9 201.4 82.8C203.4 81.8 205.6 81.2 207.9 81.2H209.7C213.5 81.2 217.1 82.7 219.8 85.4C222.5 88.1 224 91.7 224 95.5V96.2C224 97.5 223.8 98.9 223.4 100.1H230.3C237.1 100.3 242.5 105.7 242.5 112.3Z" fill="#00A76F"/>
<path d="M275.4 228.299V242.299C275.4 243.099 275 243.799 274.3 244.099C274 244.299 273.6 244.399 273.2 244.399C272 244.399 271 243.399 271 242.299V228.299C271 223.599 267.5 219.699 262.9 219.199C262.5 219.199 262.2 219.099 261.8 219.099C256.7 219.099 252.6 223.199 252.6 228.299V242.299C252.6 243.099 252.2 243.799 251.5 244.099C251.2 244.299 250.8 244.399 250.4 244.399C249.2 244.399 248.2 243.399 248.2 242.199V228.199C248.2 220.699 254.3 214.699 261.7 214.699C262.1 214.699 262.4 214.699 262.8 214.799C270 215.399 275.4 221.199 275.4 228.299Z" fill="white"/>
<path d="M275.4 228.3V242.3C275.7 242.8 275.6 243.5 275.1 243.9C274.6 244.3 274 244.3 273.5 243.9C273 243.5 272.9 242.8 273.2 242.3V228.3C273.2 223.2 269.1 219.1 264 219.1C263.6 219.1 263.3 219.1 262.9 219.2C262.5 219.2 262.2 219.1 261.8 219.1C256.7 219.1 252.6 223.2 252.6 228.3V242.3C252.9 242.8 252.8 243.5 252.3 243.9C251.8 244.3 251.2 244.3 250.7 243.9C250.2 243.5 250.1 242.9 250.4 242.3V228.3C250 223.6 252.3 219.1 256.3 216.6C260.3 214.1 265.4 214.1 269.4 216.6C273.5 219 275.8 223.6 275.4 228.3Z" fill="#C4CDD5"/>
<path d="M277.8 242.199H244.6C240.6 242.199 237.3 245.499 237.3 249.499V282.699C237.3 286.699 240.6 289.999 244.6 289.999H277.8C281.8 289.999 285.1 286.699 285.1 282.699V249.499C285.1 245.499 281.8 242.199 277.8 242.199Z" fill="#004B50"/>
<path d="M277.8 242.199H252.9C248.9 242.199 245.6 245.499 245.6 249.499V282.699C245.6 286.699 248.9 289.999 252.9 289.999H277.8C281.8 289.999 285.1 286.699 285.1 282.699V249.499C285.1 245.499 281.8 242.199 277.8 242.199Z" fill="#007867"/>
<path d="M278 145H256C251.6 145 248 148.6 248 153V175.8C248 180.2 251.6 183.8 256 183.8H278C282.4 183.8 286 180.2 286 175.8V153C286 148.6 282.4 145 278 145Z" fill="url(#paint1_linear_1_36564)"/>
<path opacity="0.08" d="M126 129.699H103.6C101.9 129.699 100.6 130.999 100.6 132.699V165.499C100.6 167.199 101.9 168.499 103.6 168.499H126C127.7 168.499 129 167.199 129 165.499V132.699C129 130.999 127.6 129.699 126 129.699Z" fill="#00A76F"/>
<path d="M119.1 135.9H96.5996C94.8996 135.9 93.5996 137.2 93.5996 138.9V171.7C93.5996 173.4 94.8996 174.7 96.5996 174.7H119C120.7 174.7 122 173.4 122 171.7V138.9C122.1 137.3 120.7 135.9 119.1 135.9Z" fill="white"/>
<path opacity="0.48" d="M119.1 135.9H96.5996C94.8996 135.9 93.5996 137.2 93.5996 138.9V171.7C93.5996 173.4 94.8996 174.7 96.5996 174.7H119C120.7 174.7 122 173.4 122 171.7V138.9C122.1 137.3 120.7 135.9 119.1 135.9Z" fill="#00A76F"/>
<path d="M80 243.5C80.2 245.5 80.9 247.4 82 249C86.4 256.8 91.4 264.5 98.2 270.3C108.3 278.8 121.4 282.5 134.2 286C133.1 285.4 131.7 279.6 131.2 278.3C130.2 275.8 129.3 273.2 128.4 270.7C126.9 266.7 123.8 263.5 120.7 260.5C113.8 253.8 105.4 248.9 96.2 246.1C90.9 244.4 85.4 243.5 80 243.5Z" fill="#00A76F"/>
<path d="M129.8 247.8C128.8 240.5 127.7 233.2 124.8 226.4C121.9 219.7 116.8 213.5 109.9 211C109.7 221.4 109.5 231.8 109.3 242.2C109.2 248.2 109.1 254.3 110.8 260.1C113.8 270.2 124.3 282 134.4 285.4C135.9 280.6 133.4 273.2 132.7 268.2L129.8 247.8Z" fill="#004B50"/>
<path d="M237.2 164H140C135.3 164 131.6 167.8 131.6 172.4V191.5C131.6 196.2 135.4 199.9 140 199.9H237.1C241.8 199.9 245.5 196.1 245.5 191.5V172.4C245.6 167.8 241.8 164 237.2 164ZM237.2 208H140C135.3 208 131.6 211.8 131.6 216.4V235.5C131.6 240.2 135.4 243.9 140 243.9H237.1C241.8 243.9 245.5 240.1 245.5 235.5V216.4C245.6 211.8 241.8 208 237.2 208ZM237.2 252.2H140C135.3 252.2 131.6 256 131.6 260.6V279.7C131.6 284.4 135.4 288.1 140 288.1H237.1C241.8 288.1 245.5 284.3 245.5 279.7V260.6C245.6 256 241.8 252.2 237.2 252.2Z" fill="#007867"/>
<path d="M237.6 164H146.4C141.7 164 138 167.8 138 172.4V191.5C138 196.2 141.8 199.9 146.4 199.9H237.5C242.2 199.9 245.9 196.1 245.9 191.5V172.4C246 167.8 242.2 164 237.6 164ZM246 217.6V234.4C246 236.9 245 239.4 243.1 241.2C241.2 243 238.7 244 236 244H148C145.3 244 142.8 243 140.9 241.2C139 239.4 138 237 138 234.4V217.6C138 212.3 142.5 208 148 208H236C238.7 208 241.2 209 243.1 210.8C244.9 212.6 246 215 246 217.6ZM237.6 252H146.4C141.7 252 138 255.8 138 260.4V279.5C138 284.2 141.8 287.9 146.4 287.9H237.5C242.2 287.9 245.9 284.1 245.9 279.5V260.4C246 255.8 242.2 252 237.6 252Z" fill="url(#paint2_linear_1_36564)"/>
<path d="M161.6 182C161.6 184.2 159.8 186 157.6 186C155.4 186 153.6 184.2 153.6 182C153.6 179.8 155.4 178 157.6 178C159.8 178 161.6 179.8 161.6 182ZM173.6 182C173.6 184.2 171.8 186 169.6 186C167.4 186 165.6 184.2 165.6 182C165.6 179.8 167.4 178 169.6 178C171.8 178 173.6 179.8 173.6 182ZM181.6 186C183.8 186 185.6 184.2 185.6 182C185.6 179.8 183.8 178 181.6 178C179.4 178 177.6 179.8 177.6 182C177.6 184.2 179.4 186 181.6 186ZM162 226C162 228.2 160.2 230 158 230C155.8 230 154 228.2 154 226C154 223.8 155.8 222 158 222C160.2 222 162 223.8 162 226ZM174 226C174 228.2 172.2 230 170 230C167.8 230 166 228.2 166 226C166 223.8 167.8 222 170 222C172.2 222 174 223.8 174 226ZM182 230C184.2 230 186 228.2 186 226C186 223.8 184.2 222 182 222C179.8 222 178 223.8 178 226C178 228.2 179.8 230 182 230ZM234 224H204C203.4 224 203 224.4 203 225V227C203 227.6 203.4 228 204 228H234C234.6 228 235 227.6 235 227V225C235 224.4 234.6 224 234 224ZM162 270C162 272.2 160.2 274 158 274C155.8 274 154 272.2 154 270C154 267.8 155.8 266 158 266C160.2 266 162 267.8 162 270ZM174 270C174 272.2 172.2 274 170 274C167.8 274 166 272.2 166 270C166 267.8 167.8 266 170 266C172.2 266 174 267.8 174 270ZM182 274C184.2 274 186 272.2 186 270C186 267.8 184.2 266 182 266C179.8 266 178 267.8 178 270C178 272.2 179.8 274 182 274ZM234 268H204C203.4 268 203 268.4 203 269V271C203 271.6 203.4 272 204 272H234C234.6 272 235 271.6 235 271V269C235 268.4 234.6 268 234 268Z" fill="#C8FAD6"/>
<path d="M264.4 267.7C264.9 265.9 263.6 264 263.2 262.2C263.1 261.9 263.1 261.5 263.2 261.2C263.4 259.7 264.7 258.6 266.2 258.6C267.7 258.6 269 259.7 269.2 261.2C269.3 261.5 269.2 261.9 269.2 262.2C268.9 264 267.6 266 268.1 267.8L268.5 269.1C269 270.6 267.8 272.2 266.2 272.2C264.6 272.2 263.5 270.7 263.9 269.2L264.4 267.7ZM258 158.8L267.2 154L276 158.8C276 158.8 274.4 170.6 267.4 174C267.4 174 258.8 170.7 258 158.8Z" fill="#004B50"/>
<defs>
<linearGradient id="paint0_linear_1_36564" x1="240" y1="360" x2="426.92" y2="25.2178" gradientUnits="userSpaceOnUse">
<stop/>
<stop offset="1" stop-opacity="0.01"/>
</linearGradient>
<linearGradient id="paint1_linear_1_36564" x1="277.574" y1="143.24" x2="255.652" y2="187.057" gradientUnits="userSpaceOnUse">
<stop stop-color="#00A66F"/>
<stop offset="1" stop-color="#007867"/>
</linearGradient>
<linearGradient id="paint2_linear_1_36564" x1="138" y1="164" x2="138" y2="287.9" gradientUnits="userSpaceOnUse">
<stop stop-color="#5BE39A"/>
<stop offset="1" stop-color="#007867"/>
</linearGradient>
</defs>
</svg>
