<svg width="244" height="180" viewBox="0 0 244 180" fill="none" xmlns="http://www.w3.org/2000/svg">
<g id="stack">
<path id="Path" opacity="0.05" d="M161.754 109.644C160.068 111.648 158.247 111.615 157.162 111.332L157.202 110.294C157.202 110.294 161.687 108.245 161.573 108.675C161.53 108.836 161.615 109.224 161.754 109.644Z" fill="#FF5630"/>
<path id="Path_2" opacity="0.05" d="M174.045 111.913C171.181 113.567 169.502 111.628 169.112 111.079C169.351 110.448 169.713 109.426 169.639 109.134C169.531 108.702 174.009 110.751 174.009 110.751L174.045 111.913Z" fill="#FF5630"/>
<path id="Path_3" opacity="0.05" d="M170.977 95.4028C170.977 95.4028 173.701 93.8332 174.296 94.5395C174.89 95.2458 170.977 95.4028 170.977 95.4028Z" fill="#FF5630"/>
<path id="Path_4" opacity="0.05" d="M172.622 96.2661C172.622 96.2661 172.174 96.4903 173.163 96.7773C174.152 97.0643 172.622 96.2661 172.622 96.2661Z" fill="#FF5630"/>
<path id="Path_5" opacity="0.05" d="M156.149 91.9496C156.057 91.9765 158.416 93.5416 160.546 92.2456C160.537 92.2456 156.68 91.7882 156.149 91.9496Z" fill="#FF5630"/>
<path id="Path_6" opacity="0.05" d="M160.429 94.9431C160.429 94.9431 159.784 96.2123 158.461 96.4006C157.138 96.589 160.429 94.9431 160.429 94.9431Z" fill="#FF5630"/>
<path id="Path_7" opacity="0.05" d="M169.089 97.6967C169.089 97.6967 172.192 102.63 171.598 103.793C171.004 104.957 169.089 97.6967 169.089 97.6967Z" fill="#FF5630"/>
<path id="Path_8" opacity="0.05" d="M162.966 117.312C162.966 117.588 162.966 117.846 162.939 118.059C162.858 119.057 160.403 118.68 160.403 118.68C158.16 118.992 157.353 117.915 157.086 116.886C157.002 116.552 156.961 116.208 156.963 115.864C156.962 115.658 156.975 115.453 157.003 115.249V115.045C157.487 114.899 158.011 115.006 158.398 115.33C159.396 116.139 160.719 115.518 160.719 115.518C160.719 115.518 161.69 115.599 162.064 115.922C162.275 116.104 162.623 115.666 162.887 115.249C162.903 115.518 162.927 116.005 162.943 116.525C162.961 116.792 162.966 117.061 162.966 117.312Z" fill="#FF5630"/>
<path id="Path_9" opacity="0.05" d="M159.028 117.254C159.028 117.254 158.355 117.913 157.086 116.895C157.002 116.561 156.961 116.217 156.963 115.873C157.611 116.366 158.813 117.254 159.028 117.254Z" fill="#FF5630"/>
<path id="Path_10" opacity="0.05" d="M162.965 117.312C162.854 117.397 162.713 117.433 162.576 117.411C162.438 117.389 162.315 117.311 162.236 117.196C162.498 116.996 162.738 116.771 162.954 116.523C162.961 116.792 162.965 117.061 162.965 117.312Z" fill="#FF5630"/>
<path id="Path_11" opacity="0.05" d="M168.228 117.774C168.228 118.052 168.228 118.31 168.253 118.521C168.333 119.521 170.789 119.142 170.789 119.142C173.031 119.456 173.838 118.379 174.105 117.348C174.237 116.813 174.265 116.257 174.188 115.711V115.507C173.704 115.364 173.18 115.471 172.791 115.792C171.793 116.601 170.473 115.98 170.473 115.98C170.473 115.98 169.502 116.063 169.127 116.386C168.916 116.568 168.569 116.13 168.307 115.713C168.291 115.982 168.264 116.469 168.248 116.989C168.23 117.252 168.226 117.521 168.228 117.774Z" fill="#FF5630"/>
<path id="Path_12" opacity="0.05" d="M172.166 117.711C172.166 117.711 172.838 118.371 174.105 117.353C174.19 117.019 174.232 116.676 174.231 116.332C173.581 116.823 172.379 117.711 172.166 117.711Z" fill="#FF5630"/>
<path id="Path_13" opacity="0.05" d="M168.228 117.774C168.338 117.859 168.479 117.895 168.617 117.873C168.754 117.851 168.877 117.773 168.955 117.657C168.693 117.459 168.452 117.233 168.237 116.985C168.23 117.252 168.226 117.521 168.228 117.774Z" fill="#FF5630"/>
<g id="#gr" opacity="0.05">
<path id="Path_14" d="M181.711 34.7017C181.758 34.5986 181.803 34.4954 181.846 34.3945C181.888 34.2936 181.904 34.2376 181.929 34.1569C181.846 34.3343 181.774 34.5162 181.711 34.7017Z" fill="#FF5630"/>
</g>
<path id="Path_15" fill-rule="evenodd" clip-rule="evenodd" d="M60.1943 164.595C59.6509 163.941 59.4018 163.092 59.5059 162.248L69.4034 81.2629L70.224 74.536C70.4143 72.9881 71.723 71.8214 73.2825 71.8094L102.273 71.6166C103.107 71.6115 103.904 71.2707 104.483 70.6712C105.063 70.0716 105.377 69.2639 105.354 68.4303L105.343 68.1231C105.314 67.2823 105.628 66.466 106.213 65.8611C106.797 65.2561 107.603 64.9145 108.444 64.9144H138.908C140.618 64.9144 142.005 66.2987 142.009 68.0087C142.009 68.1482 142 68.2875 141.982 68.4258C141.865 69.2986 142.125 70.1799 142.696 70.8498C143.268 71.5197 144.097 71.9151 144.978 71.9372L174.235 72.6839C175.135 72.706 175.981 73.1187 176.553 73.8144C177.125 74.5101 177.366 75.42 177.213 76.3075L162.586 161.739L162.31 163.353C162.242 163.766 162.09 164.16 161.862 164.51L60.1943 164.595Z" fill="#004B50"/>
<rect id="Rectangle" x="148.486" y="47.7568" width="17.1311" height="58.1449" transform="rotate(34.64 148.486 47.7568)" fill="white"/>
<rect id="Rectangle_2" x="149.502" y="50.0235" width="12.0943" height="12.0943" transform="rotate(34.804 149.502 50.0235)" fill="#FFAB00"/>
<rect id="Rectangle_3" opacity="0.5" x="141.722" y="61.9909" width="12.1106" height="12.1106" transform="rotate(34.64 141.722 61.9909)" fill="#FFAB00"/>
<rect id="Rectangle_4" opacity="0.3" x="133.409" y="74.0206" width="12.1106" height="12.1106" transform="rotate(34.64 133.409 74.0206)" fill="#FFAB00"/>
<rect id="Rectangle_5" x="128.573" y="44.7609" width="17.1311" height="57.9251" transform="rotate(16.29 128.573 44.7609)" fill="white"/>
<rect id="Rectangle_6" x="130.731" y="46.3658" width="12.1106" height="12.1106" transform="rotate(16.29 130.731 46.3658)" fill="#FF5630"/>
<rect id="Rectangle_7" opacity="0.5" x="126.63" y="60.3995" width="12.1106" height="12.1106" transform="rotate(16.29 126.63 60.3995)" fill="#FF5630"/>
<rect id="Rectangle_8" opacity="0.3" x="122.529" y="74.4313" width="12.1106" height="12.1106" transform="rotate(16.29 122.529 74.4313)" fill="#FF5630"/>
<rect id="Rectangle_9" x="116.925" y="45.6376" width="17.1311" height="57.9251" transform="rotate(4.6 116.925 45.6376)" fill="white"/>
<rect id="Rectangle_10" x="119.355" y="46.773" width="12.1106" height="12.1106" transform="rotate(4.6 119.355 46.773)" fill="#00B8D9"/>
<rect id="Rectangle_11" opacity="0.5" x="118.181" y="61.3438" width="12.1106" height="12.1106" transform="rotate(4.6 118.181 61.3438)" fill="#00B8D9"/>
<rect id="Rectangle_12" opacity="0.3" x="117.009" y="75.919" width="12.1106" height="12.1106" transform="rotate(4.6 117.009 75.919)" fill="#00B8D9"/>
<rect id="Rectangle_13" x="109.243" y="47.959" width="17.1311" height="57.9251" transform="rotate(-2.61 109.243 47.959)" fill="white"/>
<rect id="Rectangle_14" x="111.794" y="48.7771" width="12.1106" height="12.1106" transform="rotate(-2.61 111.794 48.7771)" fill="#00A76F"/>
<rect id="Rectangle_15" opacity="0.5" x="112.934" y="62.9194" width="12.1258" height="12.1257" transform="rotate(-2.8624 112.934 62.9194)" fill="#00A76F"/>
<rect id="Rectangle_16" opacity="0.3" x="113.125" y="77.9886" width="12.1106" height="12.1106" transform="rotate(-2.61 113.125 77.9886)" fill="#00A76F"/>
<path id="Path_16" d="M116.509 124.295L101.289 130.183L79.043 138.782C78.2022 137.212 76.9644 135.091 75.4329 132.56C70.1636 123.828 61.4455 110.247 53.6827 98.3109C44.9378 84.8572 37.4104 73.5044 37.4104 73.5044L42.8592 71.9348L87.3687 59.0125L116.509 124.295Z" fill="#F4F6F8"/>
<path id="Path_17" opacity="0.1" d="M116.509 124.295L101.288 130.183C92.7858 131.954 84.109 132.752 75.4259 132.56C70.1565 123.828 61.4385 110.247 53.6757 98.3109L42.8611 71.9259L87.3683 59.0125L116.509 124.295Z" fill="black"/>
<path id="Path_18" d="M127.833 120.631C127.833 120.631 104.188 134.618 68.8852 131.454L40.7422 62.8402L54.2296 60.5217L100.856 52.5145L127.315 119.297L127.833 120.631Z" fill="#00A76F"/>
<path id="Path_19" opacity="0.1" d="M127.306 119.306C121.738 119.579 115.296 119.552 108.816 118.779C101.802 117.954 94.748 116.254 88.7005 113.137C83.6441 110.534 79.321 107.702 75.5517 104.305C65.7461 95.4858 59.6785 82.8706 54.2297 60.5307L100.856 52.5234L127.306 119.306Z" fill="#FF5630"/>
<path id="Path_20" d="M144.652 115.469C144.652 115.469 127.223 118.882 109.482 116.781C102.468 115.956 95.4137 114.256 89.3663 111.139C84.3099 108.536 79.989 105.704 76.2175 102.307C64.0822 91.3891 57.6737 74.6571 51.0657 40.868C51.0657 40.868 80.0406 47.8618 108.693 32.5424C108.684 32.5536 118.341 92.8219 144.652 115.469Z" fill="white"/>
<g id="Vector" opacity="0.3">
<path d="M66.0532 53.2723C66.0532 53.2723 89.6152 51.9404 96.1941 46.8616L97.1919 50.0681C97.1919 50.0681 81.6237 56.9363 66.0532 57.0192V53.2723Z" fill="#00A76F"/>
<path d="M66.0532 69.1029C66.0532 69.1029 88.8663 67.854 106.103 59.5283L106.686 60.8602C106.686 60.8602 93.0078 68.845 66.0532 70.9349V69.1029Z" fill="#00A76F"/>
<path d="M67.8901 75.2715C67.8901 75.2715 90.7032 74.0226 107.937 65.697L108.52 67.0289C108.52 67.0289 94.8425 75.0114 67.8901 77.1035V75.2715Z" fill="#00A76F"/>
<path d="M69.7241 81.449C69.7241 81.449 92.5372 80.2 109.774 71.8744L110.354 73.2063C110.354 73.2063 96.6765 81.1911 69.7241 83.2809V81.449Z" fill="#00A76F"/>
<path d="M71.5603 87.6266C71.5603 87.6266 94.3734 86.3776 111.608 78.052L112.191 79.3839C112.191 79.3839 98.5126 87.3687 71.5603 89.4585V87.6266Z" fill="#00A76F"/>
<path d="M73.3943 93.8062C73.3943 93.8062 96.2074 92.5573 113.444 84.2316L114.025 85.5635C114.025 85.5635 100.347 93.5461 73.3943 95.6382V93.8062Z" fill="#00A76F"/>
</g>
<g id="Vector_2">
<path d="M233.801 170.508C233.801 170.508 224.321 169.937 225.438 176.581C225.438 176.581 225.213 177.753 226.281 178.287C226.281 178.287 226.296 177.794 227.252 177.962C227.592 178.019 227.939 178.036 228.283 178.011C228.748 177.98 229.19 177.797 229.541 177.491C229.541 177.491 232.207 176.39 233.243 172.035C233.243 172.035 234.01 171.085 233.979 170.84L232.38 171.513C232.38 171.513 232.927 172.668 232.496 173.625C232.496 173.625 232.445 171.556 232.138 171.607C232.075 171.607 231.306 172.006 231.306 172.006C231.306 172.006 232.245 174.024 231.53 175.477C231.53 175.477 231.799 173 231.005 172.152L229.884 172.809C229.884 172.809 230.983 174.885 230.238 176.581C230.238 176.581 230.429 173.982 229.646 172.968L228.626 173.764C228.626 173.764 229.66 175.811 229.03 177.217C229.03 177.217 228.947 174.19 228.404 173.962C228.404 173.962 227.507 174.749 227.377 175.083C227.377 175.083 228.084 176.567 227.644 177.352C227.644 177.352 227.375 175.334 227.155 175.334C227.155 175.334 226.258 176.679 226.173 177.576C226.173 177.576 226.211 176.213 226.94 175.197C226.427 175.295 225.953 175.541 225.577 175.903C225.577 175.903 225.716 174.957 227.16 174.876C227.16 174.876 227.895 173.863 228.09 173.8C228.09 173.8 226.655 173.681 225.785 174.067C225.785 174.067 226.552 173.17 228.355 173.58L229.362 172.76C229.362 172.76 227.471 172.5 226.671 172.787C226.671 172.787 227.592 171.997 229.633 172.562L230.729 171.908C230.729 171.908 229.119 171.56 228.16 171.683C228.16 171.683 229.171 171.136 231.052 171.728L231.835 171.376C231.835 171.376 230.655 171.152 230.31 171.107C229.965 171.062 229.945 170.977 229.945 170.977C230.692 170.851 231.46 170.936 232.162 171.224C232.162 171.224 233.828 170.614 233.801 170.508Z" fill="#00A76F"/>
<path d="M238.217 148.577C238.217 148.577 232.873 148.254 233.508 152.001C233.441 152.39 233.632 152.778 233.981 152.962C233.981 152.962 233.992 152.684 234.53 152.779C234.722 152.81 234.917 152.819 235.111 152.806C235.373 152.789 235.622 152.686 235.82 152.514C235.82 152.514 237.322 151.893 237.907 149.438C237.907 149.438 238.34 148.902 238.322 148.765L237.425 149.148C237.425 149.148 237.732 149.801 237.49 150.341C237.49 150.341 237.461 149.173 237.288 149.2C237.253 149.2 236.82 149.424 236.82 149.424C236.82 149.424 237.349 150.545 236.95 151.382C236.95 151.382 237.102 149.985 236.654 149.505L236.019 149.877C236.019 149.877 236.638 151.048 236.219 152.003C236.219 152.003 236.326 150.536 235.885 149.967L235.311 150.415C235.311 150.415 235.891 151.57 235.535 152.362C235.535 152.362 235.488 150.655 235.183 150.527C234.965 150.712 234.77 150.922 234.602 151.153C234.602 151.153 235.001 151.992 234.755 152.433C234.755 152.433 234.602 151.296 234.479 151.292C234.479 151.292 233.977 152.043 233.925 152.559C233.949 152.08 234.099 151.616 234.358 151.213C234.068 151.268 233.8 151.407 233.589 151.613C233.589 151.613 233.667 151.079 234.486 151.034C234.486 151.034 234.9 150.462 235.01 150.426C235.01 150.426 234.201 150.359 233.71 150.577C233.71 150.577 234.142 150.074 235.158 150.303L235.728 149.839C235.728 149.839 234.66 149.693 234.21 149.855C234.21 149.855 234.73 149.406 235.88 149.734L236.499 149.364C236.023 149.259 235.535 149.218 235.048 149.24C235.048 149.24 235.62 148.931 236.679 149.265L237.127 149.068C237.127 149.068 236.454 148.935 236.266 148.915C236.078 148.895 236.06 148.841 236.06 148.841C236.482 148.771 236.915 148.819 237.311 148.98C237.311 148.98 238.235 148.635 238.217 148.577Z" fill="#00A76F"/>
<path d="M206.672 151.828C206.672 151.828 200.219 151.438 200.981 155.96C200.9 156.43 201.131 156.899 201.553 157.122C201.553 157.122 201.553 156.785 202.226 156.898C202.457 156.937 202.693 156.948 202.927 156.931C203.244 156.91 203.545 156.786 203.784 156.577C203.784 156.577 205.598 155.828 206.304 152.864C206.304 152.864 206.827 152.218 206.804 152.05L205.703 152.516C205.703 152.516 206.076 153.301 205.782 153.953C205.782 153.953 205.746 152.545 205.537 152.577C205.495 152.577 204.972 152.85 204.972 152.85C204.972 152.85 205.611 154.218 205.129 155.214C205.129 155.214 205.313 153.527 204.773 152.949L204.006 153.397C204.006 153.397 204.753 154.812 204.246 155.965C204.246 155.965 204.376 154.196 203.844 153.498L203.149 154.041C203.149 154.041 203.853 155.433 203.423 156.391C203.423 156.391 203.369 154.33 202.999 154.175C202.999 154.175 202.391 154.711 202.3 154.931C202.3 154.931 202.779 155.942 202.481 156.476C202.481 156.476 202.297 155.104 202.147 155.097C202.147 155.097 201.544 156.007 201.474 156.629C201.505 156.053 201.685 155.495 201.997 155.01C201.648 155.076 201.326 155.244 201.071 155.492C201.071 155.492 201.165 154.848 202.147 154.792C202.147 154.792 202.647 154.101 202.782 154.061C202.782 154.061 201.804 153.978 201.212 154.24C201.212 154.24 201.732 153.635 202.959 153.911L203.645 153.35C203.645 153.35 202.36 153.175 201.813 153.368C201.813 153.368 202.441 152.832 203.831 153.225L204.578 152.776C204.578 152.776 203.481 152.541 202.826 152.626C202.826 152.626 203.517 152.254 204.795 152.657L205.329 152.418C205.329 152.418 204.526 152.261 204.291 152.236C204.055 152.211 204.044 152.146 204.044 152.146C204.553 152.06 205.075 152.117 205.553 152.312C205.553 152.312 206.692 151.897 206.672 151.828Z" fill="#00A76F"/>
</g>
<rect id="Rectangle_17" x="150.599" y="48.7604" width="38.2692" height="68.4841" rx="4.73723" transform="rotate(-71.99 150.599 48.7604)" fill="white"/>
<g id="Vector_3" opacity="0.24">
<path d="M176.742 32.6302C176.742 36.5137 173.593 39.662 169.71 39.662C165.826 39.662 162.678 36.5137 162.678 32.6302C162.678 28.7466 165.826 25.5983 169.71 25.5983C173.593 25.5983 176.742 28.7466 176.742 32.6302Z" fill="#00A76F"/>
<path d="M186.534 31.3643L187.13 29.5325L216.265 39.0048L215.67 40.8365L186.534 31.3643Z" fill="#00A76F"/>
<path d="M185.016 36.0344L185.611 34.2026L200.453 39.0278L199.857 40.8596L185.016 36.0344Z" fill="#00A76F"/>
<path d="M183.494 40.7075L184.09 38.8758L208.095 46.68L207.499 48.5118L183.494 40.7075Z" fill="#00A76F"/>
<path d="M181.977 45.3788L182.572 43.5471L211.708 53.0193L211.112 54.8511L181.977 45.3788Z" fill="#00A76F"/>
</g>
<rect id="Rectangle_18" opacity="0.5" x="200.301" y="60.6852" width="3.72445" height="8.4781" transform="rotate(-71.99 200.301 60.6852)" fill="#00A76F"/>
<rect id="Rectangle_19" x="144.624" y="115.216" width="37.7252" height="58.7284" rx="4" transform="rotate(-57.2648 144.624 115.216)" fill="white"/>
<g id="Vector_4">
<path d="M175.325 125.378L187.896 105.593L189.84 106.827L177.269 126.613L175.325 125.378Z" fill="#F4F6F8"/>
<path d="M179.478 128.014L192.048 108.229L193.992 109.463L181.421 129.249L179.478 128.014Z" fill="#F4F6F8"/>
</g>
<g id="Vector_5">
<path d="M151.944 113.003L157.668 103.994L159.788 105.341L154.064 114.35L151.944 113.003Z" fill="#C4CDD5"/>
<path d="M158.719 114.828L171.29 95.0425L173.234 96.2775L160.663 116.063L158.719 114.828Z" fill="#C4CDD5"/>
<path d="M162.871 117.463L175.442 97.6782L177.386 98.9131L164.815 118.698L162.871 117.463Z" fill="#C4CDD5"/>
<path d="M167.023 120.103L179.593 100.318L181.537 101.553L168.966 121.338L167.023 120.103Z" fill="#C4CDD5"/>
<path d="M171.318 123.928L183.976 104.238L185.911 105.481L173.253 125.172L171.318 123.928Z" fill="#C4CDD5"/>
<path d="M196.909 116.775L200.164 111.651L205.288 114.906L202.032 120.03L196.909 116.775Z" fill="#C4CDD5"/>
</g>
<path id="Path_21" d="M143.957 81.5701L109.632 81.9401C108.347 81.9536 107.313 82.9984 107.311 84.2833V87.1198C107.311 88.3918 106.296 89.4314 105.024 89.463L80.2559 90.0572C79.1757 90.0843 78.217 89.3692 77.9351 88.3262L76.7713 84.0501C76.4922 83.0185 75.5505 82.3065 74.4819 82.3191L41.3969 82.6756C40.7109 82.6823 40.0623 82.9893 39.6222 83.5157C39.1821 84.042 38.9949 84.7348 39.1098 85.4112L52.42 163.748C52.6108 164.872 53.5825 165.696 54.7229 165.701L159.245 166.149C159.945 166.152 160.61 165.841 161.058 165.302C161.505 164.763 161.688 164.052 161.557 163.364L146.282 83.4738C146.07 82.3603 145.091 81.5587 143.957 81.5701Z" fill="url(#paint0_linear_1212_167276)"/>
<g id="Vector_6" opacity="0.2">
<path d="M233.981 178.865C233.981 179.492 230.977 180 227.272 180C223.566 180 220.563 179.492 220.563 178.865C220.563 178.239 223.566 177.731 227.272 177.731C230.977 177.731 233.981 178.239 233.981 178.865Z" fill="#00A76F"/>
<path d="M238.322 153.287C238.322 153.64 236.628 153.927 234.539 153.927C232.45 153.927 230.757 153.64 230.757 153.287C230.757 152.935 232.45 152.648 234.539 152.648C236.628 152.648 238.322 152.935 238.322 153.287Z" fill="#00A76F"/>
<path d="M206.796 157.517C206.796 157.943 204.751 158.288 202.228 158.288C199.706 158.288 197.661 157.943 197.661 157.517C197.661 157.091 199.706 156.745 202.228 156.745C204.751 156.745 206.796 157.091 206.796 157.517Z" fill="#00A76F"/>
<path d="M35.3298 148.998C35.3298 149.274 33.7025 149.498 31.6951 149.498C29.6876 149.498 28.0603 149.274 28.0603 148.998C28.0603 148.722 29.6876 148.498 31.6951 148.498C33.7025 148.498 35.3298 148.722 35.3298 148.998Z" fill="#00A76F"/>
<path d="M21.4072 150.408C21.4072 150.685 19.7799 150.909 17.7725 150.909C15.765 150.909 14.1377 150.685 14.1377 150.408C14.1377 150.132 15.765 149.908 17.7725 149.908C19.7799 149.908 21.4072 150.132 21.4072 150.408Z" fill="#00A76F"/>
<path d="M25.928 154.429C25.928 154.625 24.7715 154.783 23.3448 154.783C21.9182 154.783 20.7617 154.625 20.7617 154.429C20.7617 154.233 21.9182 154.075 23.3448 154.075C24.7715 154.075 25.928 154.233 25.928 154.429Z" fill="#00A76F"/>
<path d="M11.478 154.075C11.478 154.27 10.3215 154.429 8.89489 154.429C7.46827 154.429 6.31177 154.27 6.31177 154.075C6.31177 153.879 7.46827 153.72 8.89489 153.72C10.3215 153.72 11.478 153.879 11.478 154.075Z" fill="#00A76F"/>
</g>
<g id="Vector_7">
<path d="M7.47129 153.267C7.30883 153.135 7.19072 152.955 7.1327 152.754C7.07551 152.545 7.17549 152.325 7.37039 152.231C7.59462 152.148 7.81884 152.299 7.99823 152.456C8.17761 152.613 8.38166 152.779 8.60589 152.74C8.36382 152.521 8.25482 152.191 8.31888 151.87C8.32807 151.805 8.35525 151.744 8.39736 151.693C8.51844 151.563 8.73818 151.619 8.88393 151.722C9.33239 152.045 9.47366 152.671 9.4759 153.236C9.49835 153.029 9.49835 152.82 9.4759 152.613C9.46385 152.401 9.55797 152.196 9.72704 152.068C9.83619 152.008 9.95926 151.979 10.0836 151.983C10.2919 151.953 10.5031 152.013 10.6643 152.148C10.8214 152.362 10.8121 152.656 10.6419 152.859C10.4701 153.052 10.2669 153.214 10.041 153.339C9.86945 153.442 9.72313 153.582 9.61268 153.749C9.59913 153.772 9.58858 153.796 9.58129 153.821H8.27627C7.98414 153.674 7.71335 153.487 7.47129 153.267Z" fill="#00A76F"/>
<path d="M30.2191 148.375C30.0563 148.243 29.938 148.065 29.8805 147.863C29.823 147.655 29.9219 147.436 30.116 147.341C30.3402 147.258 30.5644 147.408 30.7438 147.565C30.9232 147.722 31.125 147.893 31.356 147.859C31.1138 147.641 31.004 147.311 31.0667 146.991C31.0767 146.926 31.1046 146.864 31.1474 146.814C31.2685 146.684 31.4883 146.74 31.634 146.841C32.0937 147.166 32.2237 147.792 32.226 148.357C32.2484 148.149 32.2484 147.939 32.226 147.731C32.2056 147.522 32.2894 147.315 32.4502 147.18C32.5598 147.121 32.6827 147.093 32.8067 147.097C33.0147 147.067 33.2254 147.127 33.3875 147.26C33.5451 147.475 33.5349 147.77 33.3628 147.973C33.1923 148.166 32.9898 148.329 32.7641 148.453C32.5926 148.555 32.4462 148.695 32.3358 148.861C32.3227 148.885 32.3122 148.909 32.3044 148.935H31.0286C30.7343 148.786 30.4619 148.598 30.2191 148.375Z" fill="#00A76F"/>
<path d="M22.6383 153.267C22.476 153.134 22.3573 152.955 22.2975 152.754C22.2403 152.545 22.3403 152.325 22.5352 152.231C22.7594 152.148 22.9836 152.299 23.163 152.456C23.3424 152.613 23.542 152.783 23.7752 152.752C23.5334 152.532 23.4238 152.202 23.4859 151.882C23.4959 151.816 23.5238 151.755 23.5666 151.704C23.6877 151.574 23.9075 151.63 24.0532 151.734C24.5129 152.056 24.6407 152.682 24.6452 153.247C24.6676 153.04 24.6676 152.831 24.6452 152.624C24.6276 152.412 24.7157 152.206 24.8806 152.072C24.9897 152.012 25.1128 151.983 25.2371 151.987C25.4455 151.957 25.6566 152.018 25.8179 152.153C25.9751 152.367 25.9649 152.661 25.7932 152.864C25.6223 153.056 25.4198 153.219 25.1945 153.344C25.023 153.447 24.8767 153.587 24.7663 153.754C24.7527 153.776 24.7422 153.8 24.7349 153.826H23.4343C23.1453 153.676 22.8776 153.488 22.6383 153.267Z" fill="#00A76F"/>
</g>
<g id="Vector_8" opacity="0.08">
<path d="M10.2002 20.2524C10.2002 22.931 8.0287 25.1024 5.35008 25.1024C2.67145 25.1024 0.5 22.931 0.5 20.2524C0.5 17.5737 2.67145 15.4023 5.35008 15.4023C8.0287 15.4023 10.2002 17.5737 10.2002 20.2524Z" fill="#00A76F"/>
<path d="M243.419 59.0103C243.419 61.6889 241.247 63.8604 238.569 63.8604C235.89 63.8604 233.718 61.6889 233.718 59.0103C233.718 56.3317 235.89 54.1602 238.569 54.1602C241.247 54.1602 243.419 56.3317 243.419 59.0103Z" fill="#00A76F"/>
<path d="M156.234 4.85008C156.234 7.5287 154.063 9.70016 151.384 9.70016C148.705 9.70016 146.534 7.5287 146.534 4.85008C146.534 2.17145 148.705 0 151.384 0C154.063 0 156.234 2.17145 156.234 4.85008Z" fill="#00A76F"/>
<path d="M23.1785 47.0097C23.1785 51.4988 19.5393 55.138 15.0502 55.138C10.561 55.138 6.92187 51.4988 6.92187 47.0097C6.92187 42.5205 10.561 38.8813 15.0502 38.8813C19.5393 38.8813 23.1785 42.5205 23.1785 47.0097Z" fill="#00A76F"/>
</g>
<path id="Path_22" fill-rule="evenodd" clip-rule="evenodd" d="M96.5219 112.433C90.5405 112.433 85.6917 117.282 85.6917 123.263C85.6917 129.245 90.5405 134.094 96.5219 134.094C102.503 134.094 107.352 129.245 107.352 123.263C107.352 117.282 102.503 112.433 96.5219 112.433V112.433Z" fill="#007867"/>
<path id="Path_23" opacity="0.72" fill-rule="evenodd" clip-rule="evenodd" d="M96.5219 113.693C101.807 113.693 106.092 117.978 106.092 123.263C106.092 128.549 101.807 132.834 96.5219 132.834C91.2363 132.834 86.9514 128.549 86.9514 123.263C86.956 117.98 91.2382 113.697 96.5219 113.693Z" fill="#00A76F"/>
<path id="Path_24" fill-rule="evenodd" clip-rule="evenodd" d="M92.0434 124.054L91.5197 123.543C91.4065 123.44 91.3423 123.295 91.3423 123.144C91.3423 122.993 91.4065 122.848 91.5197 122.745L96.1147 118.257C96.2206 118.146 96.3688 118.083 96.5238 118.083C96.6789 118.083 96.827 118.146 96.933 118.257L101.528 122.741C101.639 122.845 101.702 122.989 101.702 123.14C101.702 123.291 101.639 123.435 101.528 123.539L101.004 124.05C100.897 124.159 100.749 124.22 100.595 124.22C100.441 124.22 100.293 124.159 100.186 124.05L97.469 121.255V127.888C97.4701 128.035 97.4111 128.176 97.3051 128.28C97.1991 128.384 97.0548 128.443 96.9044 128.443H96.1474C95.8333 128.443 95.5786 128.194 95.5786 127.888V121.263L92.8618 124.058C92.754 124.166 92.606 124.227 92.4517 124.226C92.2974 124.225 92.15 124.163 92.0434 124.054Z" fill="#007867"/>
<g id="Vector_9">
<path d="M17.6936 150.299C17.6936 150.299 22.7903 133.589 16.8954 126.896C12.4848 121.889 7.47773 122.487 5.23544 123.106C4.06203 123.42 3.08508 124.232 2.56263 125.328C1.77783 127.019 1.91909 129.764 7.45307 132.968C16.716 138.332 17.2922 145.688 17.2922 145.688L17.6936 150.299Z" fill="#00A76F"/>
<path d="M17.9007 150.431C17.9007 150.431 11.9295 138.287 10.2903 138.547C9.51227 138.674 9.1535 139.444 8.98981 140.21C8.78856 141.205 8.9022 142.238 9.31495 143.166C10.1625 145.117 12.4385 148.805 17.9007 150.431Z" fill="#00A76F"/>
<path d="M17.7229 150.431C17.7229 150.431 23.6919 138.287 25.331 138.547C26.1113 138.674 26.4701 139.444 26.6315 140.21C26.8328 141.205 26.7191 142.238 26.3064 143.166C25.4588 145.117 23.1806 148.805 17.7229 150.431Z" fill="#00A76F"/>
</g>
<g id="Vector_10">
<path fill-rule="evenodd" clip-rule="evenodd" d="M5.85748 125.42C5.88845 125.321 5.99367 125.266 6.09248 125.297L6.0364 125.476C6.09248 125.297 6.09248 125.297 6.09248 125.297L6.09361 125.298L6.09612 125.299L6.10517 125.302L6.13915 125.313C6.16873 125.323 6.212 125.338 6.26793 125.358C6.37978 125.398 6.54231 125.46 6.74734 125.545C7.15735 125.715 7.7376 125.981 8.42253 126.363C9.79208 127.126 11.5824 128.355 13.2668 130.219C16.6417 133.954 19.5721 140.218 17.8813 150.329C17.8642 150.432 17.7675 150.501 17.6654 150.483C17.5633 150.466 17.4943 150.37 17.5114 150.268C19.1839 140.266 16.2845 134.118 12.9885 130.471C11.3375 128.643 9.58218 127.438 8.23996 126.69C7.569 126.316 7.00183 126.057 6.60339 125.891C6.4042 125.808 6.24724 125.749 6.14067 125.711C6.08739 125.691 6.0467 125.677 6.01964 125.668L5.98938 125.658L5.98215 125.656L5.98056 125.655C5.88178 125.624 5.82652 125.519 5.85748 125.42Z" fill="#007867"/>
<path fill-rule="evenodd" clip-rule="evenodd" d="M14.9683 127.056C15.0261 127.141 15.0034 127.258 14.9177 127.316L14.9171 127.316L14.9137 127.318L14.8988 127.329C14.8853 127.339 14.8649 127.354 14.8389 127.373C14.7869 127.413 14.7123 127.473 14.6243 127.551C14.4481 127.708 14.2203 127.938 14.0131 128.229C13.5988 128.81 13.2752 129.622 13.5812 130.595C13.6123 130.694 13.5574 130.799 13.4586 130.83C13.3598 130.862 13.2546 130.807 13.2235 130.708C12.8703 129.585 13.2519 128.651 13.7076 128.011C13.9354 127.691 14.1839 127.441 14.375 127.271C14.4708 127.186 14.5528 127.12 14.6113 127.075C14.6406 127.053 14.6641 127.036 14.6806 127.024L14.7 127.01L14.7054 127.007L14.7071 127.005L14.7078 127.005C14.7078 127.005 14.708 127.005 14.8091 127.155L14.7078 127.005C14.7937 126.947 14.9104 126.97 14.9683 127.056Z" fill="#007867"/>
<path fill-rule="evenodd" clip-rule="evenodd" d="M7.67674 128.534L7.67853 128.532L7.68742 128.524C7.69568 128.516 7.70852 128.504 7.72572 128.488C7.76015 128.457 7.81184 128.413 7.87888 128.361C8.01332 128.258 8.20744 128.128 8.44593 128.018C8.92179 127.801 9.56367 127.671 10.2695 127.997C10.3636 128.04 10.475 127.999 10.5184 127.905C10.5617 127.811 10.5207 127.699 10.4267 127.656C9.59207 127.271 8.8314 127.429 8.28982 127.677C8.01959 127.801 7.80127 127.948 7.65045 128.064C7.57486 128.122 7.51572 128.173 7.47496 128.209C7.45457 128.228 7.43874 128.243 7.42772 128.253L7.41481 128.266L7.4111 128.269L7.40994 128.271L7.40938 128.271C7.40938 128.271 7.40925 128.271 7.54299 128.403L7.40938 128.271C7.3368 128.345 7.33772 128.464 7.41158 128.536C7.48544 128.609 7.60416 128.608 7.67674 128.534Z" fill="#007867"/>
<path fill-rule="evenodd" clip-rule="evenodd" d="M13.5674 135.041L13.5682 135.041L13.5721 135.039L13.5891 135.031C13.6043 135.023 13.6271 135.013 13.6566 134.999C13.7157 134.973 13.8014 134.936 13.9061 134.896C14.1166 134.815 14.3995 134.724 14.6966 134.674C14.9959 134.624 15.2939 134.62 15.5428 134.7C15.783 134.777 15.9845 134.933 16.1055 135.23C16.1446 135.325 16.2541 135.371 16.3499 135.332C16.4458 135.293 16.4918 135.184 16.4527 135.088C16.2867 134.681 15.9951 134.451 15.6572 134.342C15.328 134.237 14.9628 134.249 14.6349 134.304C14.3047 134.359 13.9962 134.46 13.7721 134.546C13.6595 134.589 13.5671 134.628 13.5024 134.658C13.4701 134.672 13.4446 134.684 13.427 134.693L13.4065 134.703L13.4009 134.705L13.3993 134.706L13.3986 134.706C13.3986 134.706 13.3985 134.706 13.4829 134.874L13.3986 134.706C13.3061 134.753 13.2689 134.866 13.3155 134.958C13.3622 135.051 13.475 135.088 13.5674 135.041Z" fill="#007867"/>
<path fill-rule="evenodd" clip-rule="evenodd" d="M10.2285 140.702C10.3138 140.643 10.4306 140.665 10.4893 140.75L10.335 140.856L10.1806 140.963C10.1218 140.877 10.1433 140.761 10.2285 140.702ZM10.335 140.856C10.1806 140.963 10.1806 140.963 10.1806 140.963L10.2515 141.065C10.2978 141.132 10.3658 141.23 10.4527 141.355C10.6266 141.604 10.8763 141.961 11.1797 142.39C11.7864 143.249 12.6082 144.398 13.4681 145.561C14.3276 146.722 15.2268 147.899 15.9879 148.811C16.3682 149.267 16.7164 149.659 17.0095 149.952C17.1559 150.098 17.291 150.222 17.4113 150.316C17.5281 150.408 17.6445 150.484 17.7521 150.519C17.8504 150.552 17.9564 150.498 17.9889 150.4C18.0213 150.302 17.9678 150.196 17.8695 150.163C17.8258 150.149 17.7512 150.107 17.6433 150.022C17.5388 149.939 17.4151 149.827 17.2744 149.686C16.993 149.406 16.6531 149.023 16.2758 148.571C15.5217 147.667 14.6276 146.497 13.7695 145.338C12.9118 144.178 12.0917 143.031 11.4859 142.174C11.1831 141.745 10.9339 141.389 10.7604 141.14C10.6736 141.016 10.6058 140.918 10.5598 140.852L10.4893 140.75C10.4893 140.75 10.4893 140.75 10.335 140.856Z" fill="#007867"/>
<path fill-rule="evenodd" clip-rule="evenodd" d="M9.57107 142.276C9.57107 142.172 9.65502 142.088 9.75857 142.088H11.2205C11.3241 142.088 11.408 142.172 11.408 142.276C11.408 142.379 11.3241 142.463 11.2205 142.463H9.75857C9.65502 142.463 9.57107 142.379 9.57107 142.276Z" fill="#007867"/>
<path fill-rule="evenodd" clip-rule="evenodd" d="M11.3225 145.591C11.3269 145.487 11.4144 145.407 11.5178 145.411L13.8117 145.51C13.9152 145.515 13.9954 145.602 13.991 145.705C13.9865 145.809 13.8991 145.889 13.7956 145.885L11.5017 145.786C11.3983 145.782 11.318 145.694 11.3225 145.591Z" fill="#007867"/>
<path fill-rule="evenodd" clip-rule="evenodd" d="M12.9446 142.756C13.046 142.777 13.1111 142.876 13.0899 142.978L12.8411 144.173C12.8199 144.274 12.7206 144.339 12.6193 144.318C12.5179 144.297 12.4528 144.198 12.4739 144.096L12.7228 142.901C12.7439 142.8 12.8432 142.735 12.9446 142.756Z" fill="#007867"/>
<path fill-rule="evenodd" clip-rule="evenodd" d="M15.3515 146.387C15.455 146.391 15.5354 146.478 15.5311 146.582L15.4863 147.667C15.482 147.771 15.3947 147.851 15.2912 147.847C15.1877 147.842 15.1073 147.755 15.1116 147.652L15.1564 146.566C15.1607 146.463 15.2481 146.383 15.3515 146.387Z" fill="#007867"/>
<path fill-rule="evenodd" clip-rule="evenodd" d="M25.1346 140.75C25.1935 140.665 25.3103 140.643 25.3955 140.702C25.4806 140.761 25.502 140.878 25.4431 140.963L25.2889 140.856L25.1346 140.75ZM25.1346 140.75C25.1346 140.75 25.1346 140.75 25.2889 140.856C25.4431 140.963 25.4431 140.963 25.4431 140.963L25.3721 141.065C25.3257 141.132 25.2576 141.23 25.1705 141.355C24.9963 141.604 24.7461 141.961 24.4422 142.391C23.8343 143.249 23.0112 144.399 22.1504 145.561C21.2899 146.722 20.3901 147.899 19.6293 148.811C19.2492 149.267 18.9014 149.659 18.6092 149.952C18.4631 150.098 18.3285 150.221 18.2088 150.316C18.0926 150.408 17.9769 150.484 17.87 150.519C17.7718 150.552 17.6656 150.499 17.6329 150.4C17.6002 150.302 17.6534 150.196 17.7516 150.163C17.7947 150.149 17.8686 150.107 17.9762 150.022C18.0802 149.94 18.2035 149.827 18.3439 149.687C18.6247 149.406 18.9642 149.023 19.3414 148.571C20.0952 147.667 20.99 146.497 21.849 145.337C22.7077 144.178 23.5292 143.031 24.1361 142.174C24.4395 141.745 24.6892 141.389 24.863 141.14C24.9499 141.016 25.0179 140.918 25.064 140.852L25.1346 140.75Z" fill="#007867"/>
<path fill-rule="evenodd" clip-rule="evenodd" d="M24.2151 142.276C24.2151 142.172 24.2991 142.088 24.4026 142.088H25.8646C25.9681 142.088 26.0521 142.172 26.0521 142.276C26.0521 142.379 25.9681 142.463 25.8646 142.463H24.4026C24.2991 142.463 24.2151 142.379 24.2151 142.276Z" fill="#007867"/>
<path fill-rule="evenodd" clip-rule="evenodd" d="M24.3005 145.591C24.305 145.694 24.2247 145.782 24.1213 145.786L21.8274 145.885C21.724 145.889 21.6365 145.809 21.632 145.705C21.6276 145.602 21.7078 145.515 21.8113 145.51L24.1052 145.411C24.2086 145.407 24.2961 145.487 24.3005 145.591Z" fill="#007867"/>
<path fill-rule="evenodd" clip-rule="evenodd" d="M22.6783 142.756C22.7797 142.735 22.879 142.8 22.9001 142.901L23.149 144.096C23.1701 144.198 23.1051 144.297 23.0037 144.318C22.9023 144.339 22.803 144.274 22.7819 144.173L22.533 142.978C22.5119 142.876 22.577 142.777 22.6783 142.756Z" fill="#007867"/>
<path fill-rule="evenodd" clip-rule="evenodd" d="M20.2717 146.387C20.3751 146.383 20.4625 146.463 20.4668 146.566L20.5116 147.652C20.5159 147.755 20.4355 147.842 20.332 147.847C20.2285 147.851 20.1412 147.771 20.1369 147.667L20.0921 146.582C20.0878 146.478 20.1682 146.391 20.2717 146.387Z" fill="#007867"/>
</g>
</g>
<defs>
<linearGradient id="paint0_linear_1212_167276" x1="75.9711" y1="57.9295" x2="39.6432" y2="165.198" gradientUnits="userSpaceOnUse">
<stop stop-color="#00A66F"/>
<stop offset="1" stop-color="#007867"/>
</linearGradient>
</defs>
</svg>
